<?xml version='1.0' encoding='utf-8'?>
<svg xmlns="http://www.w3.org/2000/svg" width="1920" height="1080" viewBox="0 0 1920 1080" data-theme="dark" data-semantic-intent="compare" data-relation-type="comparison" data-site-visual-identity="signal-cobalt">
  <style>
        @font-face {
            font-family: 'Inter';
            src: url('assets/fonts/Inter-Regular.ttf') format('truetype');
            font-weight: 400;
            font-style: normal;
            font-display: swap;
        }
        @font-face {
            font-family: 'Inter';
            src: url('assets/fonts/Inter-Bold.ttf') format('truetype');
            font-weight: 600;
            font-style: normal;
            font-display: swap;
        }
        @font-face {
            font-family: 'Inter';
            src: url('assets/fonts/Inter-Bold.ttf') format('truetype');
            font-weight: 800;
            font-style: normal;
            font-display: swap;
        }
        
:root {
    --background: #0f172a;
    --panel: #1e293b;
    --primary-text: #f1f5f9;
    --muted-text: #94a3b8;
    --inverse-text: #0f172a;
    --border: #334155;
    --shadow-color: #000000;
    --icon-pad-bg: #1e293b;
    --art-glow: #7dd3fc;
    --art-glow-opacity: 0.18;
    --art-sheen: #ffffff;
    --art-sheen-opacity: 0.18;
    --art-shadow: #000000;
    --art-shadow-opacity: 0.28;
    --art-muted-line: #64748b;
    --art-panel-tint: #1e293b;
    --semantic-risk: #f87171;
    --semantic-warning: #fb923c;
    --semantic-uncertain: #fbbf24;
    --semantic-evidence: #60a5fa;
    --semantic-claim: #c084fc;
    --semantic-positive: #4ade80;
    --semantic-outcome: #22d3ee;
    --font-family: 'Inter', 'Segoe UI', 'Kalam', Roboto, Helvetica, Arial, sans-serif;
    --radius-xl: 16px;
    --font-family-headline: 'Segoe UI Variable Display', 'Aptos Display', 'Inter', 'Segoe UI', Helvetica, Arial, sans-serif;
    --font-family-body: 'Segoe UI Variable Text', 'Aptos', 'Inter', 'Segoe UI', Helvetica, Arial, sans-serif;
    --font-heading: var(--font-family-headline);
    --font-body: var(--font-family-body);
    --font-size-h1: 64px;
    --font-size-h2: 42px;
    --font-size-h3: 29px;
    --font-size-body: 21px;
    --font-size-caption: 17px;
    --secondary-text: var(--muted-text);
    --panel-border: var(--border);
    --font-weight-normal: 400;
    --font-weight-medium: 500;
    --font-weight-semibold: 600;
    --font-weight-bold: 700;
    --spacing-gutter-pct: 0.07;
    --spacing-top-pct: 0.15;
    --spacing-bottom-pct: 0.07;
    --spacing-title-y-pct: 0.055;
    --accent-1: #93c5fd;
    --accent-2: #60a5fa;
    --accent-3: #818cf8;
    --accent-4: #a78bfa;
    --accent-5: #38bdf8;
    --accent-6: #fb923c;
}
:root[data-theme="dark"] {
    --background: #0f172a;
    --panel: #1e293b;
    --primary-text: #f1f5f9;
    --muted-text: #94a3b8;
    --inverse-text: #0f172a;
    --border: #334155;
    --shadow-color: #000000;
    --icon-pad-bg: #1e293b;
    --art-glow: #7dd3fc;
    --art-glow-opacity: 0.18;
    --art-sheen: #ffffff;
    --art-sheen-opacity: 0.18;
    --art-shadow: #000000;
    --art-shadow-opacity: 0.28;
    --art-muted-line: #64748b;
    --art-panel-tint: #1e293b;
    --semantic-risk: #f87171;
    --semantic-warning: #fb923c;
    --semantic-uncertain: #fbbf24;
    --semantic-evidence: #60a5fa;
    --semantic-claim: #c084fc;
    --semantic-positive: #4ade80;
    --semantic-outcome: #22d3ee;
    --accent-1: #93c5fd;
    --accent-2: #60a5fa;
    --accent-3: #818cf8;
    --accent-4: #a78bfa;
    --accent-5: #38bdf8;
    --accent-6: #fb923c;
}
:root[data-theme="light"] {
    --background: #f8fafc;
    --panel: #ffffff;
    --primary-text: #0f172a;
    --muted-text: #64748b;
    --inverse-text: #ffffff;
    --border: #e2e8f0;
    --shadow-color: #000000;
    --icon-pad-bg: #1e293b;
    --art-glow: #0891b2;
    --art-glow-opacity: 0.10;
    --art-sheen: #ffffff;
    --art-sheen-opacity: 0.34;
    --art-shadow: #0f172a;
    --art-shadow-opacity: 0.14;
    --art-muted-line: #94a3b8;
    --art-panel-tint: #f1f5f9;
    --semantic-risk: #b91c1c;
    --semantic-warning: #c2410c;
    --semantic-uncertain: #a16207;
    --semantic-evidence: #1d4ed8;
    --semantic-claim: #6d28d9;
    --semantic-positive: #15803d;
    --semantic-outcome: #0e7490;
    --accent-1: #1d4ed8;
    --accent-2: #2563eb;
    --accent-3: #4f46e5;
    --accent-4: #6d28d9;
    --accent-5: #0369a1;
    --accent-6: #c2410c;
}</style>
  <rect x="0" y="0" width="1.92E+3" height="1.08E+3" fill="#252a34" stroke="none" id="programmatic_background"/>
  <line id="HEADER_DECOR" x1="960.0" x2="1080.0" y1="135.0" y2="135.0" stroke="var(--accent-1)" stroke-width="6" stroke-linecap="round"/>
  <defs>
    <filter id="svg209a6b77-force-white" x="-20%" y="-20%" width="140%" height="140%">
      <feColorMatrix type="matrix" values="0 0 0 0 1                                            0 0 0 0 1                                            0 0 0 0 1                                            0 0 0 1 0"/>
    </filter>
    <pattern id="svg209a6b77-napkin-hatch" patternUnits="userSpaceOnUse" width="12" height="12">
      <path d="M -3 12 L 12 -3 M 0 15 L 15 0" fill="none" stroke="var(--primary-text)" stroke-width="1" stroke-opacity="0.05"/>
    </pattern>
    <radialGradient id="svg209a6b77-universal-edge-vignette" cx="50%" cy="50%" r="72%">
      <stop offset="0%" stop-color="var(--background)" stop-opacity="0"/>
      <stop offset="72%" stop-color="var(--background)" stop-opacity="0.12"/>
      <stop offset="100%" stop-color="var(--primary-text)" stop-opacity="0.08"/>
    </radialGradient>
    <linearGradient id="svg209a6b77-universal-surface-sheen" x1="0%" y1="0%" x2="100%" y2="100%">
      <stop offset="0%" stop-color="var(--art-sheen)" stop-opacity="var(--art-sheen-opacity)"/>
      <stop offset="46%" stop-color="var(--art-sheen)" stop-opacity="0.035"/>
      <stop offset="100%" stop-color="var(--art-panel-tint)" stop-opacity="0.14"/>
    </linearGradient>
    <radialGradient id="svg209a6b77-universal-icon-aura" cx="50%" cy="42%" r="64%">
      <stop offset="0%" stop-color="var(--art-glow)" stop-opacity="var(--art-glow-opacity)"/>
      <stop offset="100%" stop-color="var(--background)" stop-opacity="0"/>
    </radialGradient>
    <linearGradient id="svg209a6b77-comparison-card-depth" x1="0%" y1="0%" x2="0%" y2="100%">
      <stop offset="0%" stop-color="var(--art-sheen)" stop-opacity="0.30"/>
      <stop offset="55%" stop-color="var(--art-sheen)" stop-opacity="0.035"/>
      <stop offset="100%" stop-color="var(--art-shadow)" stop-opacity="0.10"/>
    </linearGradient>
    <filter id="svg209a6b77-text-glow" x="-20%" y="-20%" width="140%" height="140%">
      <feDropShadow dx="0" dy="0" stdDeviation="2" flood-color="#000000" flood-opacity="0.4"/>
    </filter>
    <filter id="svg209a6b77-shadow" x="-30%" y="-30%" width="160%" height="160%">
      <feDropShadow dx="0" dy="2" stdDeviation="3" flood-color="#000000" flood-opacity="0.08"/>
      <feDropShadow dx="0" dy="6" stdDeviation="10" flood-color="#000000" flood-opacity="0.12"/>
    </filter>
    <marker id="svg209a6b77-arrowhead" markerWidth="10" markerHeight="7" refX="9" refY="3.5" orient="auto" markerUnits="strokeWidth">
      <polygon points="0 0, 10 3.5, 0 7" fill="var(--muted-text)" opacity="0.6"/>
    </marker>
  </defs>
  <rect width="100%" height="100%" fill="var(--background)" id="CANVAS_BG"/>
  <rect width="100%" height="100%" fill="url(#svg209a6b77-napkin-hatch)"/>
  <rect id="UNIVERSAL_EDGE_VIGNETTE" width="100%" height="100%" fill="url(#svg209a6b77-universal-edge-vignette)" opacity="0.62"/>
  <text id="TITLE" x="960.0" y="59" font-size="63" font-weight="700" fill="#f1f5f9" style="font-size: 69px; font-family: 'Segoe UI Variable Display', 'Aptos Display', 'Inter', 'Segoe UI', Helvetica, Arial, sans-serif; font-weight: 800; font-kerning: normal; font-feature-settings: &quot;kern&quot; 1, &quot;liga&quot; 1; letter-spacing:-1.2px;" text-anchor="middle" data-final-font-size="69">
    <tspan x="960.0" dy="70.47px">AI Security Dilemma vs Nuclear Race</tspan>
  </text>
  <rect id="TITLE_FRAME" x="134" y="59" width="1652" height="103" fill="none"/>
  <g transform="translate(255.0, 630.0)">
    <rect id="CARD_1_BG" x="-225" y="-330" width="450" height="660" rx="18" fill="var(--semantic-claim)" stroke="var(--accent-1)" stroke-width="2" fill-opacity="0.4"/>
    <circle cy="-180" r="50" fill="var(--background)" stroke="var(--accent-1)" stroke-width="2" id="ITEM_1_BADGE"/>
    <rect id="ITEM_1_TEXT_BG" x="-213.0" y="-106.0" width="426.0" height="350.8" rx="22" fill="var(--panel)" fill-opacity="0.94" stroke="var(--primary-text)" stroke-opacity="0.12" stroke-width="1.5"/>
    <rect id="COMPARISON_COLUMNS_ART_PANEL_SHEEN_1" x="-213.0" y="-106.0" width="426.0" height="350.8" rx="16" fill="var(--semantic-claim)" opacity="0.82" fill-opacity="0.15" stroke="none"/>
    <text id="ITEM_1_HEAD" data-bg-id="ITEM_1_TEXT_BG" text-anchor="middle" font-weight="bold" font-size="36" fill="var(--primary-text)" x="0.0" y="-90.0" fill-opacity="1.0" stroke="none" style="font-size: 31px; font-family: 'Segoe UI Variable Display', 'Aptos Display', 'Inter', 'Segoe UI', Helvetica, Arial, sans-serif; font-weight: 700; font-kerning: normal; font-feature-settings: &quot;kern&quot; 1, &quot;liga&quot; 1; letter-spacing:-0.4px;" data-final-font-size="31">
      <tspan x="0.0" dy="34.40px">Development Actors</tspan>
    </text>
    <rect id="ITEM_1_HEAD_FRAME" x="-195" y="-90" width="390" height="51.75" fill="none"/>
    <text id="ITEM_1_BODY" data-bg-id="ITEM_1_TEXT_BG" text-anchor="middle" font-size="21" x="0.0" y="-30.0" fill="var(--primary-text)" font-weight="700" opacity="1" style="font-size: 23px; font-family: 'Segoe UI Variable Text', 'Aptos', 'Inter', 'Segoe UI', Helvetica, Arial, sans-serif; font-weight: 400; font-kerning: normal; font-feature-settings: &quot;kern&quot; 1, &quot;liga&quot; 1;" data-max-lines="20" data-final-font-size="23">
      <tspan x="0.0" dy="59.58px">Private companies lead AI over</tspan>
      <tspan x="0.0" dy="26.45px">government labs</tspan>
    </text>
    <rect id="ITEM_1_BODY_FRAME" x="-190" y="-30" width="380" height="258.8" fill="none"/>
    <circle id="ITEM_1_PAD" cx="0.0" cy="-180.0" r="58" fill="var(--icon-pad-bg)" stroke="var(--semantic-claim)" opacity="1" fill-opacity="0.9" stroke-width="2" stroke-opacity="0.72" data-badge-layer="pad"/>
    <circle cx="0.0" cy="-180.0" r="46.4" fill="none" stroke="var(--accent-1)" stroke-width="3" stroke-dasharray="6 4" display="none" data-suppressed-decoration="redundant-badge-ring"/>
    <g id="ITEM_1_ICON" transform="translate(-45.0, -225.0)" data-icon-size="90" stroke-linecap="round" stroke-linejoin="round" data-badge-treatment="clean">
      <g transform="translate(-6.7028571428571455,-6.7028571428571455) scale(3.2314285714285718)">
        <path d="M27.9999 20L15.9999 19L3.99992 20L2.01992 28.8911C1.9104 29.657 2.99521 29.5 3.49992 29.5H28.4999C29.0046 29.5 30.0894 29.657 29.9799 28.8911L27.9999 20Z" fill="#D3D3D3"/>
        <path d="M27 2H5C4.45 2 4 2.45 4 3V19.99H28V3C28 2.45 27.55 2 27 2Z" fill="#7167A4"/>
        <path d="M5 18.74V3.25C5 3.11 5.11 3 5.25 3H26.75C26.89 3 27 3.11 27 3.25V18.74C27 18.88 26.89 18.99 26.75 18.99H5.25C5.11 18.99 5 18.88 5 18.74Z" fill="#26C9FC"/>
        <path fill-rule="evenodd" clip-rule="evenodd" d="M27.27 21.28L27.99 24.53C28.04 24.77 27.86 24.99 27.62 24.99H4.37997C4.13997 24.99 3.95997 24.76 4.00997 24.53L4.72997 21.28C4.76997 21.11 4.91997 20.99 5.09997 20.99H26.9C27.08 20.99 27.23 21.11 27.27 21.28ZM8.18555 24.5H6.75344L6.87845 23.75H8.2793L8.18555 24.5ZM10.1241 24.5H8.68944L8.7832 23.75H10.1866L10.1241 24.5ZM11.9623 24.5H10.6259L10.6884 23.75H11.9936L11.9623 24.5ZM13.8123 24.5H12.4627L12.494 23.75H13.8435L13.8123 24.5ZM15.75 24.5H14.3127L14.344 23.75H15.75V24.5ZM17.6873 24.5H16.25V23.75H17.656L17.6873 24.5ZM19.5373 24.5H18.1877L18.1565 23.75H19.506L19.5373 24.5ZM21.3741 24.5H20.0377L20.0064 23.75H21.3116L21.3741 24.5ZM23.3106 24.5H21.8759L21.8134 23.75H23.2168L23.3106 24.5ZM25.2466 24.5H23.8145L23.7207 23.75H25.1216L25.2466 24.5ZM27 24.5H25.7535L25.6284 23.75H26.875L27 24.5ZM26.6667 22.5L26.7917 23.25H25.5451L25.4201 22.5H26.6667ZM26.5 21.5L26.5833 22H25.3368L25.2535 21.5H26.5ZM23.4395 21.5H24.7466L24.8299 22H23.5019L23.4395 21.5ZM21.6259 21.5H22.9356L22.9981 22H21.6675L21.6259 21.5ZM19.9127 21.5H21.1241L21.1658 22H19.9335L19.9127 21.5ZM18.0627 21.5H19.4123L19.4331 22H18.0835L18.0627 21.5ZM16.25 21.5H17.5623L17.5831 22H16.25V21.5ZM14.4377 21.5H15.75V22H14.4169L14.4377 21.5ZM12.5877 21.5H13.9373L13.9164 22H12.5669L12.5877 21.5ZM10.8759 21.5H12.0873L12.0665 22H10.8342L10.8759 21.5ZM9.06444 21.5H10.3741L10.3325 22H9.00195L9.06444 21.5ZM7.25344 21.5H8.56055L8.49805 22H7.17012L7.25344 21.5ZM5.5 21.5H6.74655L6.66322 22H5.41667L5.5 21.5ZM5.20834 23.25L5.33334 22.5H6.57989L6.45489 23.25H5.20834ZM5 24.5L5.12501 23.75H6.37155L6.24655 24.5H5ZM25.0382 23.25L24.9132 22.5H23.5644L23.6582 23.25H25.0382ZM23.1543 23.25L23.0606 22.5H21.7092L21.7717 23.25H23.1543ZM21.27 23.25L21.2075 22.5H19.9544L19.9856 23.25H21.27ZM19.4852 23.25L19.4539 22.5H18.1044L18.1356 23.25H19.4852ZM17.6352 23.25L17.6039 22.5H16.25V23.25H17.6352ZM7.08678 22.5L6.96178 23.25H8.3418L8.43555 22.5H7.08678ZM8.93945 22.5L8.8457 23.25H10.2283L10.2908 22.5H8.93945ZM10.7925 22.5L10.73 23.25H12.0144L12.0456 22.5H10.7925ZM12.5461 22.5L12.5148 23.25H13.8644L13.8956 22.5H12.5461ZM14.3961 22.5L14.3648 23.25H15.75V22.5H14.3961Z" fill="#9B9B9B"/>
        <path d="M29.09 29C29.44 29 29.74 28.8 29.89 28.51L29.98 28.89L29.9834 28.9133C29.9921 28.9736 30 29.0279 30 29.09C30 29.59 29.59 30 29.09 30H2.91C2.41 30 2 29.59 2 29.09C2 29.02 2.01 28.96 2.03 28.9L2.11 28.52C2.26 28.8 2.56 29 2.91 29H29.09Z" fill="#9B9B9B"/>
        <path d="M10.82 27.99H21.18C21.34 27.99 21.46 27.84 21.42 27.68L21.04 26.18C21.01 26.07 20.91 25.99 20.8 25.99H11.2C11.09 25.99 10.99 26.07 10.96 26.18L10.58 27.68C10.54 27.84 10.66 27.99 10.82 27.99Z" fill="#9B9B9B"/>
      </g>
    </g>
  </g>
  <g transform="translate(726.0, 630.0)">
    <rect id="CARD_2_BG" x="-225" y="-330" width="450" height="660" rx="18" fill="var(--semantic-claim)" stroke="var(--accent-2)" stroke-width="2" fill-opacity="0.4"/>
    <circle cy="-180" r="50" fill="var(--background)" stroke="var(--accent-2)" stroke-width="2" id="ITEM_2_BADGE"/>
    <rect id="ITEM_2_TEXT_BG" x="-213.0" y="-106.0" width="426.0" height="350.8" rx="22" fill="var(--panel)" fill-opacity="0.94" stroke="var(--primary-text)" stroke-opacity="0.12" stroke-width="1.5"/>
    <rect id="COMPARISON_COLUMNS_ART_PANEL_SHEEN_2" x="-213.0" y="-106.0" width="426.0" height="350.8" rx="16" fill="var(--semantic-claim)" opacity="0.82" fill-opacity="0.15" stroke="none"/>
    <text id="ITEM_2_HEAD" data-bg-id="ITEM_2_TEXT_BG" text-anchor="middle" font-weight="bold" font-size="36" fill="var(--primary-text)" x="0.0" y="-90.0" fill-opacity="1.0" stroke="none" style="font-size: 31px; font-family: 'Segoe UI Variable Display', 'Aptos Display', 'Inter', 'Segoe UI', Helvetica, Arial, sans-serif; font-weight: 700; font-kerning: normal; font-feature-settings: &quot;kern&quot; 1, &quot;liga&quot; 1; letter-spacing:-0.4px;" data-final-font-size="31">
      <tspan x="0.0" dy="34.40px">Information Spread</tspan>
    </text>
    <rect id="ITEM_2_HEAD_FRAME" x="-195" y="-90" width="390" height="51.75" fill="none"/>
    <text id="ITEM_2_BODY" data-bg-id="ITEM_2_TEXT_BG" text-anchor="middle" font-size="21" x="0.0" y="-30.0" fill="var(--primary-text)" font-weight="700" opacity="1" style="font-size: 23px; font-family: 'Segoe UI Variable Text', 'Aptos', 'Inter', 'Segoe UI', Helvetica, Arial, sans-serif; font-weight: 400; font-kerning: normal; font-feature-settings: &quot;kern&quot; 1, &quot;liga&quot; 1;" data-max-lines="20" data-final-font-size="23">
      <tspan x="0.0" dy="59.58px">Software spreads instantly unlike</tspan>
      <tspan x="0.0" dy="26.45px">physical weapons</tspan>
    </text>
    <rect id="ITEM_2_BODY_FRAME" x="-190" y="-30" width="380" height="258.8" fill="none"/>
    <circle id="ITEM_2_PAD" cx="0.0" cy="-180.0" r="58" fill="var(--icon-pad-bg)" stroke="var(--semantic-claim)" opacity="1" fill-opacity="0.9" stroke-width="2" stroke-opacity="0.72" data-badge-layer="pad"/>
    <circle cx="0.0" cy="-180.0" r="46.4" fill="none" stroke="var(--accent-1)" stroke-width="3" stroke-dasharray="6 4" display="none" data-suppressed-decoration="redundant-badge-ring"/>
    <g id="ITEM_2_ICON" transform="translate(-45.0, -225.0)" data-icon-size="90" stroke-linecap="round" stroke-linejoin="round" data-badge-treatment="clean">
      <g transform="translate(-5.08714285714286,-6.298928571428579) scale(3.2314285714285718)">
        <path d="M14.3675 5.87431L10.6615 3.30015C10.2652 3.02489 9.72534 3.12861 9.44275 3.51981L1.77125 14.5646C1.496 14.9609 1.59462 15.5081 1.99091 15.7833L5.69698 18.3575C6.09327 18.6328 6.64046 18.5341 6.91571 18.1378L14.5872 7.09304C14.8625 6.69675 14.7638 6.14956 14.3675 5.87431ZM16.6809 25.9761L20.3869 28.5502C20.7832 28.8255 21.3253 28.7342 21.6006 28.3379L29.272 17.2931C29.5473 16.8968 29.4487 16.3496 29.0524 16.0744L25.3463 13.5002C24.95 13.225 24.4028 13.3236 24.1276 13.7199L16.4612 24.7573C16.1859 25.1536 16.2846 25.7008 16.6809 25.9761Z" fill="#635994"/>
        <path d="M21.4869 12.9951L19.3688 10.6316L16.2031 9.32501L15.1836 10.7928L17.5195 13.2275L20.4675 14.4628L21.4869 12.9951Z" fill="#998EA4"/>
        <path d="M12.4766 13.2646L11.0088 12.2451L10.4991 12.979L11.9668 13.9985L12.4766 13.2646ZM19.0888 17.8571L20.5566 18.8765L20.0468 19.6104L18.5791 18.5909L19.0888 17.8571ZM13.5848 19.4848L12.8509 18.9751L11.3217 21.1767L12.0556 21.6865L13.5848 19.4848ZM9.29531 24.1097L10.0365 24.6246L8.50732 26.8262L7.76611 26.3114L9.29531 24.1097Z" fill="#1C1C1C"/>
        <path d="M12.5996 6.82217L10.3979 5.29297L8.86874 7.49459L11.0704 9.02379L12.5996 6.82217ZM7.84939 8.96277L10.051 10.492L8.52181 12.6936L6.32019 11.1644L7.84939 8.96277ZM7.50231 14.1613L5.30069 12.6321L3.77148 14.8337L5.97311 16.3629L7.50231 14.1613ZM25.0828 15.4929L27.2844 17.0221L25.7552 19.2237L23.5536 17.6945L25.0828 15.4929ZM22.5342 19.1624L24.7358 20.6916L23.2066 22.8932L21.005 21.364L22.5342 19.1624ZM22.1872 24.3606L19.9855 22.8314L18.4563 25.033L20.658 26.5622L22.1872 24.3606Z" fill="#BCA4EB"/>
        <path d="M16.1371 9.27938L21.5458 13.0361C21.876 13.2655 22.3311 13.1899 22.5531 12.8546L23.2514 11.8492C23.4808 11.5189 23.4001 11.0712 23.0699 10.8418L17.6612 7.0851C17.331 6.85572 16.8833 6.9364 16.6539 7.26665L15.9556 8.27206C15.7262 8.6023 15.8069 9.05 16.1371 9.27938ZM8.98669 27.7029C8.56441 28.3108 7.72923 28.4613 7.12127 28.0391C6.51331 27.6168 6.36279 26.7816 6.78506 26.1737C7.20734 25.5657 8.04251 25.4152 8.65048 25.8374C9.25844 26.2597 9.40896 27.0949 8.98669 27.7029ZM12.3559 26.2356L6.9766 22.4993C6.40418 22.1017 6.3806 21.2585 6.9266 20.8327C8.43104 19.6691 10.5674 19.5537 12.2112 20.6955C13.8551 21.8373 14.4928 23.8795 13.9278 25.6955C13.7216 26.3683 12.9283 26.6332 12.3559 26.2356ZM10.5301 17.3519L15.9387 21.1087C16.269 21.3381 16.724 21.2625 16.946 20.9271L20.7028 15.5185C20.9322 15.1882 20.8515 14.7405 20.5212 14.5111L15.1126 10.7544C14.7823 10.525 14.3346 10.6057 14.1053 10.936L10.3485 16.3446C10.1191 16.6749 10.1998 17.1226 10.5301 17.3519Z" fill="#B4ACBC"/>
      </g>
    </g>
  </g>
  <g transform="translate(1194.0, 630.0)">
    <rect id="CARD_3_BG" x="-225" y="-330" width="450" height="660" rx="18" fill="var(--semantic-claim)" stroke="var(--accent-3)" stroke-width="2" fill-opacity="0.4"/>
    <circle cy="-180" r="50" fill="var(--background)" stroke="var(--accent-3)" stroke-width="2" id="ITEM_3_BADGE"/>
    <rect id="ITEM_3_TEXT_BG" x="-213.0" y="-106.0" width="426.0" height="350.8" rx="22" fill="var(--panel)" fill-opacity="0.94" stroke="var(--primary-text)" stroke-opacity="0.12" stroke-width="1.5"/>
    <rect id="COMPARISON_COLUMNS_ART_PANEL_SHEEN_3" x="-213.0" y="-106.0" width="426.0" height="350.8" rx="16" fill="var(--semantic-claim)" opacity="0.82" fill-opacity="0.15" stroke="none"/>
    <text id="ITEM_3_HEAD" data-bg-id="ITEM_3_TEXT_BG" text-anchor="middle" font-weight="bold" font-size="36" fill="var(--primary-text)" x="0.0" y="-90.0" fill-opacity="1.0" stroke="none" style="font-size: 31px; font-family: 'Segoe UI Variable Display', 'Aptos Display', 'Inter', 'Segoe UI', Helvetica, Arial, sans-serif; font-weight: 700; font-kerning: normal; font-feature-settings: &quot;kern&quot; 1, &quot;liga&quot; 1; letter-spacing:-0.4px;" data-final-font-size="31">
      <tspan x="0.0" dy="34.40px">Commercial Linkage</tspan>
    </text>
    <rect id="ITEM_3_HEAD_FRAME" x="-195" y="-90" width="390" height="51.75" fill="none"/>
    <text id="ITEM_3_BODY" data-bg-id="ITEM_3_TEXT_BG" text-anchor="middle" font-size="21" x="0.0" y="-30.0" fill="var(--primary-text)" font-weight="700" opacity="1" style="font-size: 23px; font-family: 'Segoe UI Variable Text', 'Aptos', 'Inter', 'Segoe UI', Helvetica, Arial, sans-serif; font-weight: 400; font-kerning: normal; font-feature-settings: &quot;kern&quot; 1, &quot;liga&quot; 1;" data-max-lines="20" data-final-font-size="23">
      <tspan x="0.0" dy="59.58px">Market incentives reinforce</tspan>
      <tspan x="0.0" dy="26.45px">strategic competition dynamics</tspan>
    </text>
    <rect id="ITEM_3_BODY_FRAME" x="-190" y="-30" width="380" height="258.8" fill="none"/>
    <circle id="ITEM_3_PAD" cx="0.0" cy="-180.0" r="58" fill="var(--icon-pad-bg)" stroke="var(--semantic-claim)" opacity="1" fill-opacity="0.9" stroke-width="2" stroke-opacity="0.72" data-badge-layer="pad"/>
    <circle cx="0.0" cy="-180.0" r="46.4" fill="none" stroke="var(--accent-2)" stroke-width="3" stroke-dasharray="6 4" display="none" data-suppressed-decoration="redundant-badge-ring"/>
    <g id="ITEM_3_ICON" transform="translate(-45.0, -225.0)" data-icon-size="90" stroke-linecap="round" stroke-linejoin="round" data-badge-treatment="clean">
      <g transform="translate(-6.7028571428571455,-6.7028571428571455) scale(3.2314285714285718)">
        <path d="M16 30C23.732 30 30 23.732 30 16C30 8.26801 23.732 2 16 2C8.26801 2 2 8.26801 2 16C2 23.732 8.26801 30 16 30Z" fill="#F9C23C"/>
        <path opacity="0.53" d="M27 16C27 22.0751 22.0751 27 16 27C9.92487 27 5 22.0751 5 16C5 9.92487 9.92487 5 16 5C22.0751 5 27 9.92487 27 16ZM22.32 19.89C22.25 19.67 22.04 19.52 21.81 19.52H21.84V11.76C22.27 11.48 22.35 10.79 21.83 10.48L16.44 7.22004C16.2 7.07004 15.9 7.07004 15.66 7.22004L10.26 10.48C9.74 10.79 9.82 11.48 10.24 11.76V19.53H10.13C9.89 19.53 9.68 19.69 9.62 19.92L9.27 21.17C9.17 21.51 9.43 21.85 9.78 21.85H22.23C22.58 21.84 22.84 21.49 22.73 21.14L22.32 19.89ZM11.9 11.88V19.52H13.56V11.88H11.9ZM15.21 11.88V19.52H16.9V11.88H15.21ZM18.56 11.88V19.52H20.18V11.88H18.56Z" fill="#D3883E"/>
      </g>
    </g>
  </g>
  <g transform="translate(1665.0, 630.0)">
    <rect id="CARD_4_BG" x="-225" y="-330" width="450" height="660" rx="18" fill="var(--semantic-claim)" stroke="var(--accent-4)" stroke-width="2" fill-opacity="0.4"/>
    <circle cy="-180" r="50" fill="var(--background)" stroke="var(--accent-4)" stroke-width="2" id="ITEM_4_BADGE"/>
    <rect id="ITEM_4_TEXT_BG" x="-213.0" y="-106.0" width="426.0" height="350.8" rx="22" fill="var(--panel)" fill-opacity="0.94" stroke="var(--primary-text)" stroke-opacity="0.12" stroke-width="1.5"/>
    <rect id="COMPARISON_COLUMNS_ART_PANEL_SHEEN_4" x="-213.0" y="-106.0" width="426.0" height="350.8" rx="16" fill="var(--semantic-claim)" opacity="0.82" fill-opacity="0.15" stroke="none"/>
    <text id="ITEM_4_HEAD" data-bg-id="ITEM_4_TEXT_BG" text-anchor="middle" font-weight="bold" font-size="36" fill="var(--primary-text)" x="0.0" y="-90.0" fill-opacity="1.0" stroke="none" style="font-size: 31px; font-family: 'Segoe UI Variable Display', 'Aptos Display', 'Inter', 'Segoe UI', Helvetica, Arial, sans-serif; font-weight: 700; font-kerning: normal; font-feature-settings: &quot;kern&quot; 1, &quot;liga&quot; 1; letter-spacing:-0.4px;" data-final-font-size="31">
      <tspan x="0.0" dy="34.40px">Progress Visibility</tspan>
    </text>
    <rect id="ITEM_4_HEAD_FRAME" x="-195" y="-90" width="390" height="51.75" fill="none"/>
    <text id="ITEM_4_BODY" data-bg-id="ITEM_4_TEXT_BG" text-anchor="middle" font-size="21" x="0.0" y="-30.0" fill="var(--primary-text)" font-weight="700" opacity="1" style="font-size: 23px; font-family: 'Segoe UI Variable Text', 'Aptos', 'Inter', 'Segoe UI', Helvetica, Arial, sans-serif; font-weight: 400; font-kerning: normal; font-feature-settings: &quot;kern&quot; 1, &quot;liga&quot; 1;" data-max-lines="20" data-final-font-size="23">
      <tspan x="0.0" dy="59.58px">AI improvements occur in sudden</tspan>
      <tspan x="0.0" dy="26.45px">capability jumps</tspan>
    </text>
    <rect id="ITEM_4_BODY_FRAME" x="-190" y="-30" width="380" height="258.8" fill="none"/>
    <circle id="ITEM_4_PAD" cx="0.0" cy="-180.0" r="58" fill="var(--icon-pad-bg)" stroke="var(--semantic-claim)" opacity="1" fill-opacity="0.9" stroke-width="2" stroke-opacity="0.72" data-badge-layer="pad"/>
    <circle cx="0.0" cy="-180.0" r="46.4" fill="none" stroke="var(--accent-3)" stroke-width="3" stroke-dasharray="6 4" display="none" data-suppressed-decoration="redundant-badge-ring"/>
    <g id="ITEM_4_ICON" transform="translate(-45.0, -225.0)" data-icon-size="90" stroke-linecap="round" stroke-linejoin="round" data-badge-treatment="clean">
      <g transform="translate(-6.7028571428571455,-7.106785714285723) scale(3.2314285714285718)">
        <path d="M4.71839 18.0233C5.11525 17.458 5.8952 17.3215 6.46045 17.7184L18.5318 26.1936L17.0946 28.2406L5.02328 19.7653C4.45803 19.3685 4.32152 18.5885 4.71839 18.0233Z" fill="#5092FF"/>
        <path d="M18.5013 2.80347C18.8302 2.3598 19.4615 2.25982 19.9114 2.58017L21.5841 3.77124C22.034 4.09158 22.1321 4.71094 21.8032 5.15461L13.1102 16.8809C12.4436 17.7801 11.1641 17.9827 10.2523 17.3335C9.34053 16.6842 9.14176 15.429 9.80835 14.5298L18.5013 2.80347Z" fill="#636363"/>
        <path d="M18.0472 3.66594C16.8384 3.31432 15.3804 3.86071 14.5971 4.91739L11.7749 8.7243L11.9999 10.0001L10.6024 10.306L10.3989 10.5805C9.07399 12.3677 9.47824 14.8692 11.3018 16.1677C13.1254 17.4662 15.6778 17.07 17.0027 15.2828L17.1623 15.0675L16.9999 13.5001H18.3242L18.4883 13.2787C21.992 13.9302 23.8684 16.851 23.963 19.8545C24.0149 21.5041 23.5209 23.1307 22.4806 24.3899C21.4537 25.6329 19.8112 26.6185 17.3793 26.8486C16.5451 26.9276 15.9304 27.6956 16.0062 28.564C16.082 29.4325 16.8197 30.0725 17.6539 29.9935C20.7829 29.6974 23.1847 28.3804 24.7802 26.4491C26.3624 24.5339 27.069 22.1145 26.9946 19.751C26.8719 15.8564 24.6058 11.9837 20.5048 10.5586L21.2008 9.61967C21.9842 8.56299 22.0639 7.03517 21.3491 6.01708L18.0472 3.66594Z" fill="#BEBEBE"/>
        <path d="M2 29.2C2 27.4327 3.43269 26 5.2 26H26.8C28.5673 26 30 27.4327 30 29.2C30 29.6418 29.6418 30 29.2 30H2.8C2.35817 30 2 29.6418 2 29.2Z" fill="#9B9B9B"/>
        <path d="M11.7757 8.70947L18.3343 13.4746L17.1588 15.0927L10.6001 10.3275L11.7757 8.70947Z" fill="#D3D3D3"/>
      </g>
    </g>
  </g>
  <text id="SOURCE_NOTE" x="134.0" y="1058.0" fill="var(--muted-text)" opacity="0.88" style="font-family: var(--font-family); font-size: 20px;">Source: Introduction</text>
</svg>
