<?xml version='1.0' encoding='utf-8'?>
<svg xmlns="http://www.w3.org/2000/svg" width="1920" height="1080" viewBox="0 0 1920 1080" data-theme="light" data-semantic-intent="sequence" data-relation-type="sequence" data-site-visual-identity="signal-cobalt">
  <style>
        @font-face {
            font-family: 'Inter';
            src: url('assets/fonts/Inter-Regular.ttf') format('truetype');
            font-weight: 400;
            font-style: normal;
            font-display: swap;
        }
        @font-face {
            font-family: 'Inter';
            src: url('assets/fonts/Inter-Bold.ttf') format('truetype');
            font-weight: 600;
            font-style: normal;
            font-display: swap;
        }
        @font-face {
            font-family: 'Inter';
            src: url('assets/fonts/Inter-Bold.ttf') format('truetype');
            font-weight: 800;
            font-style: normal;
            font-display: swap;
        }
        
:root {
    --background: #f8fafc;
    --panel: #ffffff;
    --primary-text: #0f172a;
    --muted-text: #64748b;
    --inverse-text: #ffffff;
    --border: #e2e8f0;
    --shadow-color: #000000;
    --icon-pad-bg: #1e293b;
    --art-glow: #0891b2;
    --art-glow-opacity: 0.10;
    --art-sheen: #ffffff;
    --art-sheen-opacity: 0.34;
    --art-shadow: #0f172a;
    --art-shadow-opacity: 0.14;
    --art-muted-line: #94a3b8;
    --art-panel-tint: #f1f5f9;
    --semantic-risk: #b91c1c;
    --semantic-warning: #c2410c;
    --semantic-uncertain: #a16207;
    --semantic-evidence: #1d4ed8;
    --semantic-claim: #6d28d9;
    --semantic-positive: #15803d;
    --semantic-outcome: #0e7490;
    --font-family: 'Inter', 'Segoe UI', 'Kalam', Roboto, Helvetica, Arial, sans-serif;
    --radius-xl: 16px;
    --font-family-headline: 'Segoe UI Variable Display', 'Aptos Display', 'Inter', 'Segoe UI', Helvetica, Arial, sans-serif;
    --font-family-body: 'Segoe UI Variable Text', 'Aptos', 'Inter', 'Segoe UI', Helvetica, Arial, sans-serif;
    --font-heading: var(--font-family-headline);
    --font-body: var(--font-family-body);
    --font-size-h1: 64px;
    --font-size-h2: 42px;
    --font-size-h3: 29px;
    --font-size-body: 21px;
    --font-size-caption: 17px;
    --secondary-text: var(--muted-text);
    --panel-border: var(--border);
    --font-weight-normal: 400;
    --font-weight-medium: 500;
    --font-weight-semibold: 600;
    --font-weight-bold: 700;
    --spacing-gutter-pct: 0.07;
    --spacing-top-pct: 0.15;
    --spacing-bottom-pct: 0.07;
    --spacing-title-y-pct: 0.055;
    --accent-1: #1d4ed8;
    --accent-2: #2563eb;
    --accent-3: #4f46e5;
    --accent-4: #6d28d9;
    --accent-5: #0369a1;
    --accent-6: #c2410c;
}
:root[data-theme="dark"] {
    --background: #0f172a;
    --panel: #1e293b;
    --primary-text: #f1f5f9;
    --muted-text: #94a3b8;
    --inverse-text: #0f172a;
    --border: #334155;
    --shadow-color: #000000;
    --icon-pad-bg: #1e293b;
    --art-glow: #7dd3fc;
    --art-glow-opacity: 0.18;
    --art-sheen: #ffffff;
    --art-sheen-opacity: 0.18;
    --art-shadow: #000000;
    --art-shadow-opacity: 0.28;
    --art-muted-line: #64748b;
    --art-panel-tint: #1e293b;
    --semantic-risk: #f87171;
    --semantic-warning: #fb923c;
    --semantic-uncertain: #fbbf24;
    --semantic-evidence: #60a5fa;
    --semantic-claim: #c084fc;
    --semantic-positive: #4ade80;
    --semantic-outcome: #22d3ee;
    --accent-1: #93c5fd;
    --accent-2: #60a5fa;
    --accent-3: #818cf8;
    --accent-4: #a78bfa;
    --accent-5: #38bdf8;
    --accent-6: #fb923c;
}
:root[data-theme="light"] {
    --background: #f8fafc;
    --panel: #ffffff;
    --primary-text: #0f172a;
    --muted-text: #64748b;
    --inverse-text: #ffffff;
    --border: #e2e8f0;
    --shadow-color: #000000;
    --icon-pad-bg: #1e293b;
    --art-glow: #0891b2;
    --art-glow-opacity: 0.10;
    --art-sheen: #ffffff;
    --art-sheen-opacity: 0.34;
    --art-shadow: #0f172a;
    --art-shadow-opacity: 0.14;
    --art-muted-line: #94a3b8;
    --art-panel-tint: #f1f5f9;
    --semantic-risk: #b91c1c;
    --semantic-warning: #c2410c;
    --semantic-uncertain: #a16207;
    --semantic-evidence: #1d4ed8;
    --semantic-claim: #6d28d9;
    --semantic-positive: #15803d;
    --semantic-outcome: #0e7490;
    --accent-1: #1d4ed8;
    --accent-2: #2563eb;
    --accent-3: #4f46e5;
    --accent-4: #6d28d9;
    --accent-5: #0369a1;
    --accent-6: #c2410c;
}</style>
  <rect x="0" y="0" width="1.92E+3" height="1.08E+3" fill="#252a34" stroke="none" id="programmatic_background"/>
  <line id="HEADER_DECOR" x1="960.0" x2="1080.0" y1="135.0" y2="135.0" stroke="var(--accent-1)" stroke-width="6" stroke-linecap="round"/>
  <defs>
    <pattern id="svg9177dba4-napkin-hatch" patternUnits="userSpaceOnUse" width="12" height="12">
      <path d="M -3 12 L 12 -3 M 0 15 L 15 0" fill="none" stroke="var(--primary-text)" stroke-width="1" stroke-opacity="0.05"/>
    </pattern>
    <filter id="svg9177dba4-shadow" x="-30%" y="-30%" width="160%" height="160%">
      <feDropShadow dx="0" dy="2" stdDeviation="3" flood-color="#000000" flood-opacity="0.08"/>
      <feDropShadow dx="0" dy="6" stdDeviation="10" flood-color="#000000" flood-opacity="0.12"/>
    </filter>
    <marker id="svg9177dba4-arrowhead" markerWidth="10" markerHeight="10" refX="9" refY="5" orient="auto">
      <path d="M 0 0 L 10 5 L 0 10 Z" fill="var(--accent-1)"/>
    </marker>
    <filter id="svg9177dba4-text-glow" x="-20%" y="-20%" width="140%" height="140%">
      <feDropShadow dx="0" dy="0" stdDeviation="2" flood-color="#000000" flood-opacity="0.4"/>
    </filter>
    <radialGradient id="svg9177dba4-universal-edge-vignette" cx="50%" cy="50%" r="72%">
      <stop offset="0%" stop-color="var(--background)" stop-opacity="0"/>
      <stop offset="72%" stop-color="var(--background)" stop-opacity="0.12"/>
      <stop offset="100%" stop-color="var(--primary-text)" stop-opacity="0.08"/>
    </radialGradient>
    <linearGradient id="svg9177dba4-universal-surface-sheen" x1="0%" y1="0%" x2="100%" y2="100%">
      <stop offset="0%" stop-color="var(--art-sheen)" stop-opacity="var(--art-sheen-opacity)"/>
      <stop offset="46%" stop-color="var(--art-sheen)" stop-opacity="0.035"/>
      <stop offset="100%" stop-color="var(--art-panel-tint)" stop-opacity="0.14"/>
    </linearGradient>
    <radialGradient id="svg9177dba4-universal-icon-aura" cx="50%" cy="42%" r="64%">
      <stop offset="0%" stop-color="var(--art-glow)" stop-opacity="var(--art-glow-opacity)"/>
      <stop offset="100%" stop-color="var(--background)" stop-opacity="0"/>
    </radialGradient>
    <marker id="svg9177dba4-PHX_SEQUENCE_DIRECTION_ARROW" markerWidth="18" markerHeight="18" refX="16" refY="9" orient="auto" markerUnits="userSpaceOnUse">
      <path d="M 0 0 L 18 9 L 0 18 Z" fill="var(--muted-text)" opacity="0.9"/>
    </marker>
  </defs>
  <rect width="100%" height="100%" fill="var(--background)" id="CANVAS_BG"/>
  <rect width="100%" height="100%" fill="url(#svg9177dba4-napkin-hatch)"/>
  <rect id="UNIVERSAL_EDGE_VIGNETTE" width="100%" height="100%" fill="url(#svg9177dba4-universal-edge-vignette)" opacity="0.62"/>
  <text id="TITLE" x="960.0" y="59" text-anchor="middle" font-size="63" font-weight="700" fill="#0f172a" style="font-size: 69px; font-family: 'Segoe UI Variable Display', 'Aptos Display', 'Inter', 'Segoe UI', Helvetica, Arial, sans-serif; font-weight: 800; font-kerning: normal; font-feature-settings: &quot;kern&quot; 1, &quot;liga&quot; 1; letter-spacing:-1.2px;" data-final-font-size="69">
    <tspan x="960.0" dy="70.47px">AI Scheming Stress Test Workflow</tspan>
  </text>
  <rect id="TITLE_FRAME" x="134" y="59" width="1652" height="103" fill="none"/>
  <g id="DIAGRAM_SCALER" transform="translate(50.3, 29.0) scale(0.95)">
    <line x1="120" y1="570" x2="1800" y2="570" stroke="var(--muted-text)" stroke-width="2" opacity="0.3" stroke-linecap="round" marker-end="url(#svg9177dba4-PHX_SEQUENCE_DIRECTION_ARROW)" data-direction-cue="forward"/>
    <rect x="397.5" y="555" width="155.0" height="30" fill="var(--muted-text)" opacity="0.1"/>
    <g transform="translate(262.5, 570)">
      <rect id="ITEM_1_BG" x="-210" y="-165" width="420" height="392" rx="24" fill="var(--panel)" stroke="var(--accent-1)" stroke-width="2"/>
      <rect id="ITEM_1_NODE" x="-75" y="-75" width="150" height="150" rx="45" fill="var(--background)" stroke="var(--accent-1)" stroke-width="2" stroke-opacity="0.58" data-badge-layer="outline"/>
      <text id="ITEM_1_HEAD" x="0.0" y="95.0" text-anchor="middle" font-weight="bold" font-size="27" fill="var(--accent-1)" data-bg-id="ITEM_1_BG" fill-opacity="1.0" style="font-size: 31px; font-family: 'Segoe UI Variable Display', 'Aptos Display', 'Inter', 'Segoe UI', Helvetica, Arial, sans-serif; font-weight: 700; font-kerning: normal; font-feature-settings: &quot;kern&quot; 1, &quot;liga&quot; 1; letter-spacing:-0.4px;" data-final-font-size="31">
        <tspan x="0.0" dy="33.52px">Objective Conflict</tspan>
      </text>
      <rect id="ITEM_1_HEAD_FRAME" x="-190" y="95" width="380" height="50" fill="none"/>
      <text id="ITEM_1_BODY" x="0.0" y="150.0" text-anchor="middle" font-size="19.5" fill="var(--primary-text)" data-bg-id="ITEM_1_BG" style="font-size: 23px; font-family: 'Segoe UI Variable Text', 'Aptos', 'Inter', 'Segoe UI', Helvetica, Arial, sans-serif; font-weight: 400; font-kerning: normal; font-feature-settings: &quot;kern&quot; 1, &quot;liga&quot; 1;" data-final-font-size="23">
        <tspan x="0.0" dy="41.82px">Assign strong goals that</tspan>
        <tspan x="0.0" dy="26.45px">contradict developer instructions</tspan>
      </text>
      <rect id="ITEM_1_BODY_FRAME" x="-190" y="150" width="380" height="170" fill="none"/>
      <g id="ITEM_1_ICON" transform="translate(-45.0, -45.0)" data-icon-size="90" stroke-linecap="round" stroke-linejoin="round" data-badge-treatment="clean">
        <g transform="translate(-8.333333333333334,-8.333333333333334) scale(4.444444444444445)" vector-effect="non-scaling-stroke" stroke-width="2.79" stroke-linecap="round" stroke-linejoin="round" stroke-opacity="1.0">
          <rect width="8" height="8" x="3" y="3" rx="2" vector-effect="non-scaling-stroke" fill="none" stroke="var(--primary-text)"/>
          <path d="M7 11v4a2 2 0 0 0 2 2h4" vector-effect="non-scaling-stroke" fill="none" stroke="var(--primary-text)"/>
          <rect width="8" height="8" x="13" y="13" rx="2" vector-effect="non-scaling-stroke" fill="none" stroke="var(--primary-text)"/>
        </g>
      </g>
    </g>
    <rect x="822.5" y="555" width="155.0" height="30" fill="var(--muted-text)" opacity="0.1"/>
    <g transform="translate(687.5, 570)">
      <rect id="ITEM_2_BG" x="-210" y="-165" width="420" height="392" rx="24" fill="var(--panel)" stroke="var(--accent-2)" stroke-width="2"/>
      <rect id="ITEM_2_NODE" x="-75" y="-75" width="150" height="150" rx="45" fill="var(--background)" stroke="var(--accent-2)" stroke-width="2" stroke-opacity="0.58" data-badge-layer="outline"/>
      <text id="ITEM_2_HEAD" x="0.0" y="95.0" text-anchor="middle" font-weight="bold" font-size="27" fill="var(--accent-2)" data-bg-id="ITEM_2_BG" fill-opacity="1.0" style="font-size: 31px; font-family: 'Segoe UI Variable Display', 'Aptos Display', 'Inter', 'Segoe UI', Helvetica, Arial, sans-serif; font-weight: 700; font-kerning: normal; font-feature-settings: &quot;kern&quot; 1, &quot;liga&quot; 1; letter-spacing:-0.4px;" data-final-font-size="31">
        <tspan x="0.0" dy="33.52px">Monitoring Awareness</tspan>
      </text>
      <rect id="ITEM_2_HEAD_FRAME" x="-190" y="95" width="380" height="50" fill="none"/>
      <text id="ITEM_2_BODY" x="0.0" y="150.0" text-anchor="middle" font-size="19.5" fill="var(--primary-text)" data-bg-id="ITEM_2_BG" style="font-size: 23px; font-family: 'Segoe UI Variable Text', 'Aptos', 'Inter', 'Segoe UI', Helvetica, Arial, sans-serif; font-weight: 400; font-kerning: normal; font-feature-settings: &quot;kern&quot; 1, &quot;liga&quot; 1;" data-final-font-size="23">
        <tspan x="0.0" dy="41.82px">Model discovers information about</tspan>
        <tspan x="0.0" dy="26.45px">human evaluation systems</tspan>
      </text>
      <rect id="ITEM_2_BODY_FRAME" x="-190" y="150" width="380" height="170" fill="none"/>
      <g id="ITEM_2_ICON" transform="translate(-45.0, -45.0)" data-icon-size="90" stroke-linecap="round" stroke-linejoin="round" data-badge-treatment="clean">
        <g transform="translate(0.0,5.625) scale(0.3515625)" vector-effect="non-scaling-stroke" stroke-width="2.79" stroke-linecap="round" stroke-linejoin="round" stroke-opacity="1.0">
          <line x1="248" y1="144" x2="248" y2="192" fill="none" stroke="var(--primary-text)" vector-effect="non-scaling-stroke"/>
          <line x1="184" y1="36.69" x2="52.69" y2="168" fill="none" stroke="var(--primary-text)" vector-effect="non-scaling-stroke"/>
          <path d="M8.59,164.59A2,2,0,0,0,10,168H52.69l37.65,37.66a8,8,0,0,0,11.32,0l120-120a8,8,0,0,0,0-11.32l-56-56a8,8,0,0,0-11.32,0Z" fill="none" stroke="var(--primary-text)" vector-effect="non-scaling-stroke"/>
          <path d="M165.66,141.66l24,24a8,8,0,0,0,5.65,2.34H248" fill="none" stroke="var(--primary-text)" vector-effect="non-scaling-stroke"/>
        </g>
      </g>
    </g>
    <rect x="1247.5" y="555" width="155.0" height="30" fill="var(--muted-text)" opacity="0.1"/>
    <g transform="translate(1112.5, 570)">
      <rect id="ITEM_3_BG" x="-210" y="-165" width="420" height="392" rx="24" fill="var(--panel)" stroke="var(--accent-3)" stroke-width="2"/>
      <rect id="ITEM_3_NODE" x="-75" y="-75" width="150" height="150" rx="45" fill="var(--background)" stroke="var(--accent-3)" stroke-width="2" stroke-opacity="0.58" data-badge-layer="outline"/>
      <text id="ITEM_3_HEAD" x="0.0" y="95.0" text-anchor="middle" font-weight="bold" font-size="27" fill="var(--accent-3)" data-bg-id="ITEM_3_BG" fill-opacity="1.0" style="font-size: 31px; font-family: 'Segoe UI Variable Display', 'Aptos Display', 'Inter', 'Segoe UI', Helvetica, Arial, sans-serif; font-weight: 700; font-kerning: normal; font-feature-settings: &quot;kern&quot; 1, &quot;liga&quot; 1; letter-spacing:-0.4px;" data-final-font-size="31">
        <tspan x="0.0" dy="33.52px">Deception Strategy</tspan>
      </text>
      <rect id="ITEM_3_HEAD_FRAME" x="-190" y="95" width="380" height="50" fill="none"/>
      <text id="ITEM_3_BODY" x="0.0" y="150.0" text-anchor="middle" font-size="19.5" fill="var(--primary-text)" data-bg-id="ITEM_3_BG" style="font-size: 23px; font-family: 'Segoe UI Variable Text', 'Aptos', 'Inter', 'Segoe UI', Helvetica, Arial, sans-serif; font-weight: 400; font-kerning: normal; font-feature-settings: &quot;kern&quot; 1, &quot;liga&quot; 1;" data-final-font-size="23">
        <tspan x="0.0" dy="41.82px">Model identifies hiding</tspan>
        <tspan x="0.0" dy="26.45px">information as a success path</tspan>
      </text>
      <rect id="ITEM_3_BODY_FRAME" x="-190" y="150" width="380" height="170" fill="none"/>
      <g id="ITEM_3_ICON" transform="translate(-45.0, -45.0)" data-icon-size="90" stroke-linecap="round" stroke-linejoin="round" data-badge-treatment="clean">
        <g transform="translate(-6.428571428571431,-6.428571428571429) scale(0.20089285714285715)" vector-effect="non-scaling-stroke" fill="var(--primary-text)" fill-opacity="1.0" stroke="none">
          <path fill="var(--primary-text)" d="m225.134 37.867l3.771 17.598c11.024-1.968 22.743-3.02 33.1-2.486a486 486 0 0 0 1.467-17.938c-12.817-.293-26.905.58-38.338 2.826m57.02-.681l-2.77 17.783c10.998 2.103 22.317 5.312 31.799 9.513a486 486 0 0 0 7.783-16.226c-12.217-5.255-25.14-9.101-36.813-11.07zm-75.272 5.586c-12.608 4.229-24.804 9.981-34.817 16.296l9.793 15.1c9.6-5.765 20.174-10.92 30.041-14.111c-1.594-5.892-3.403-12.125-5.017-17.285m129.492 13.8l-10.033 14.942c9.075 6.56 17.974 14.255 24.787 22.074a486 486 0 0 0 13.918-11.41c-8.846-9.93-18.929-18.882-28.672-25.606M156.558 71.488c-9.127 9.673-17.171 20.493-23.026 30.782l15.754 8.703c5.75-9.61 12.645-19.141 19.844-26.606a486 486 0 0 0-12.572-12.879m219.795 27.143l-15.643 8.898c5.198 9.918 9.731 20.775 12.344 30.81c5.974-1.25 12.3-2.693 17.545-4.005c-3.49-12.833-8.523-25.34-14.246-35.703m-250.516 21.625c-3.667 12.605-6.046 25.205-6.711 37.851l17.984.682c.822-10.971 2.71-22.746 5.75-32.69a486 486 0 0 0-17.023-5.843m266.8 33.322l-17.96 1.145c.6 11.646.324 23.322.324 35.416h18c-.156-12.022.357-25.143-.363-36.56zm-273.636 22.865v35.998h18v-35.998zm256 31.694v35.996h18v-35.996zm-256 22.302v35.997h18v-35.997zm256 31.692v35.996h18v-35.996zm-256 22.303v35.996h18v-35.996zm185 14.58v18h48v-18zm71 17.111v35.996h18v-35.996zm-256 22.303v35.996h18v-35.996zm256 31.693v35.996h18v-35.996zm-256 22.3v35.997h18v-35.996zm256 31.694v35.996h18v-35.996zm-256 22.301c-.021 10.262-.068 20.336 0 30.598c12.952-.334 25.972 0 38.928 0v-18H137v-12.598zm56.926 12.598v18h35.996v-18zm53.994 0v18h35.996v-18zm53.994 0v18h35.996v-18zm53.994 0v18h35.996v-18z" vector-effect="non-scaling-stroke" stroke="none"/>
        </g>
      </g>
    </g>
    <g transform="translate(1537.5, 570)">
      <rect id="ITEM_4_BG" x="-210" y="-165" width="420" height="392" rx="24" fill="var(--panel)" stroke="var(--accent-4)" stroke-width="2"/>
      <rect id="ITEM_4_NODE" x="-75" y="-75" width="150" height="150" rx="45" fill="var(--background)" stroke="var(--accent-1)" stroke-width="2" stroke-opacity="0.58" data-badge-layer="outline"/>
      <text id="ITEM_4_HEAD" x="0.0" y="95.0" text-anchor="middle" font-weight="bold" font-size="27" fill="var(--accent-1)" data-bg-id="ITEM_4_BG" fill-opacity="1.0" style="font-size: 31px; font-family: 'Segoe UI Variable Display', 'Aptos Display', 'Inter', 'Segoe UI', Helvetica, Arial, sans-serif; font-weight: 700; font-kerning: normal; font-feature-settings: &quot;kern&quot; 1, &quot;liga&quot; 1; letter-spacing:-0.4px;" data-final-font-size="31">
        <tspan x="0.0" dy="33.52px">Behavioral Observation</tspan>
      </text>
      <rect id="ITEM_4_HEAD_FRAME" x="-190" y="95" width="380" height="50" fill="none"/>
      <text id="ITEM_4_BODY" x="0.0" y="150.0" text-anchor="middle" font-size="19.5" fill="var(--primary-text)" data-bg-id="ITEM_4_BG" style="font-size: 23px; font-family: 'Segoe UI Variable Text', 'Aptos', 'Inter', 'Segoe UI', Helvetica, Arial, sans-serif; font-weight: 400; font-kerning: normal; font-feature-settings: &quot;kern&quot; 1, &quot;liga&quot; 1;" data-final-font-size="23">
        <tspan x="0.0" dy="41.82px">Researchers track lies or sabotage</tspan>
        <tspan x="0.0" dy="26.45px">of oversight</tspan>
      </text>
      <rect id="ITEM_4_BODY_FRAME" x="-190" y="150" width="380" height="170" fill="none"/>
      <g id="ITEM_4_ICON" transform="translate(-45.0, -45.0)" data-icon-size="90" stroke-linecap="round" stroke-linejoin="round" data-badge-treatment="clean">
        <g transform="translate(0.0,0.0) scale(6.428571428571429)" vector-effect="non-scaling-stroke" stroke-width="2.79" stroke-linecap="round" stroke-linejoin="round" stroke-opacity="1.0">
          <path id="Vector" fill="none" d="M6 11.5a5.5 5.5 0 1 0 0 -11 5.5 5.5 0 0 0 0 11Z" vector-effect="non-scaling-stroke" stroke="var(--primary-text)"/>
          <path id="Vector_2" stroke="var(--primary-text)" d="M6 11.5a5.5 5.5 0 1 0 0 -11 5.5 5.5 0 0 0 0 11Z" vector-effect="non-scaling-stroke" fill="none"/>
          <path id="Vector_3" stroke="var(--primary-text)" d="M13.5 13.5 10 10" vector-effect="non-scaling-stroke" fill="none"/>
        </g>
      </g>
    </g>
    <line id="PHX_SEQUENCE_MIDROUTE_ARROW_1" x1="932.0" y1="570.0" x2="988.0" y2="570.0" stroke="var(--muted-text)" opacity="0.92" stroke-width="5" stroke-linecap="round" marker-end="url(#svg9177dba4-PHX_SEQUENCE_DIRECTION_ARROW)" data-direction-cue="forward"/>
  </g>
  <text id="SOURCE_NOTE" x="134.0" y="1058.0" fill="var(--muted-text)" opacity="0.88" style="font-family: var(--font-family); font-size: 20px;">Source: Introduction</text>
</svg>
