<?xml version='1.0' encoding='utf-8'?>
<svg xmlns="http://www.w3.org/2000/svg" width="1920" height="1080" viewBox="0 0 1920 1080" data-theme="dark" data-semantic-intent="compare" data-relation-type="comparison" data-site-visual-identity="signal-cobalt">
  <style>
        @font-face {
            font-family: 'Inter';
            src: url('assets/fonts/Inter-Regular.ttf') format('truetype');
            font-weight: 400;
            font-style: normal;
            font-display: swap;
        }
        @font-face {
            font-family: 'Inter';
            src: url('assets/fonts/Inter-Bold.ttf') format('truetype');
            font-weight: 600;
            font-style: normal;
            font-display: swap;
        }
        @font-face {
            font-family: 'Inter';
            src: url('assets/fonts/Inter-Bold.ttf') format('truetype');
            font-weight: 800;
            font-style: normal;
            font-display: swap;
        }
        
:root {
    --background: #0f172a;
    --panel: #1e293b;
    --primary-text: #f1f5f9;
    --muted-text: #94a3b8;
    --inverse-text: #0f172a;
    --border: #334155;
    --shadow-color: #000000;
    --icon-pad-bg: #1e293b;
    --art-glow: #7dd3fc;
    --art-glow-opacity: 0.18;
    --art-sheen: #ffffff;
    --art-sheen-opacity: 0.18;
    --art-shadow: #000000;
    --art-shadow-opacity: 0.28;
    --art-muted-line: #64748b;
    --art-panel-tint: #1e293b;
    --semantic-risk: #f87171;
    --semantic-warning: #fb923c;
    --semantic-uncertain: #fbbf24;
    --semantic-evidence: #60a5fa;
    --semantic-claim: #c084fc;
    --semantic-positive: #4ade80;
    --semantic-outcome: #22d3ee;
    --font-family: 'Inter', 'Segoe UI', 'Kalam', Roboto, Helvetica, Arial, sans-serif;
    --radius-xl: 16px;
    --font-family-headline: 'Segoe UI Variable Display', 'Aptos Display', 'Inter', 'Segoe UI', Helvetica, Arial, sans-serif;
    --font-family-body: 'Segoe UI Variable Text', 'Aptos', 'Inter', 'Segoe UI', Helvetica, Arial, sans-serif;
    --font-heading: var(--font-family-headline);
    --font-body: var(--font-family-body);
    --font-size-h1: 64px;
    --font-size-h2: 42px;
    --font-size-h3: 29px;
    --font-size-body: 21px;
    --font-size-caption: 17px;
    --secondary-text: var(--muted-text);
    --panel-border: var(--border);
    --font-weight-normal: 400;
    --font-weight-medium: 500;
    --font-weight-semibold: 600;
    --font-weight-bold: 700;
    --spacing-gutter-pct: 0.07;
    --spacing-top-pct: 0.15;
    --spacing-bottom-pct: 0.07;
    --spacing-title-y-pct: 0.055;
    --accent-1: #93c5fd;
    --accent-2: #60a5fa;
    --accent-3: #818cf8;
    --accent-4: #a78bfa;
    --accent-5: #38bdf8;
    --accent-6: #fb923c;
}
:root[data-theme="dark"] {
    --background: #0f172a;
    --panel: #1e293b;
    --primary-text: #f1f5f9;
    --muted-text: #94a3b8;
    --inverse-text: #0f172a;
    --border: #334155;
    --shadow-color: #000000;
    --icon-pad-bg: #1e293b;
    --art-glow: #7dd3fc;
    --art-glow-opacity: 0.18;
    --art-sheen: #ffffff;
    --art-sheen-opacity: 0.18;
    --art-shadow: #000000;
    --art-shadow-opacity: 0.28;
    --art-muted-line: #64748b;
    --art-panel-tint: #1e293b;
    --semantic-risk: #f87171;
    --semantic-warning: #fb923c;
    --semantic-uncertain: #fbbf24;
    --semantic-evidence: #60a5fa;
    --semantic-claim: #c084fc;
    --semantic-positive: #4ade80;
    --semantic-outcome: #22d3ee;
    --accent-1: #93c5fd;
    --accent-2: #60a5fa;
    --accent-3: #818cf8;
    --accent-4: #a78bfa;
    --accent-5: #38bdf8;
    --accent-6: #fb923c;
}
:root[data-theme="light"] {
    --background: #f8fafc;
    --panel: #ffffff;
    --primary-text: #0f172a;
    --muted-text: #64748b;
    --inverse-text: #ffffff;
    --border: #e2e8f0;
    --shadow-color: #000000;
    --icon-pad-bg: #1e293b;
    --art-glow: #0891b2;
    --art-glow-opacity: 0.10;
    --art-sheen: #ffffff;
    --art-sheen-opacity: 0.34;
    --art-shadow: #0f172a;
    --art-shadow-opacity: 0.14;
    --art-muted-line: #94a3b8;
    --art-panel-tint: #f1f5f9;
    --semantic-risk: #b91c1c;
    --semantic-warning: #c2410c;
    --semantic-uncertain: #a16207;
    --semantic-evidence: #1d4ed8;
    --semantic-claim: #6d28d9;
    --semantic-positive: #15803d;
    --semantic-outcome: #0e7490;
    --accent-1: #1d4ed8;
    --accent-2: #2563eb;
    --accent-3: #4f46e5;
    --accent-4: #6d28d9;
    --accent-5: #0369a1;
    --accent-6: #c2410c;
}</style>
  <rect x="0" y="0" width="1.92E+3" height="1.08E+3" fill="#252a34" stroke="none" id="programmatic_background"/>
  <line id="HEADER_DECOR" x1="960.0" x2="1080.0" y1="107.0" y2="107.0" stroke="var(--accent-1)" stroke-width="6" stroke-linecap="round"/>
  <defs>
    <pattern id="svge9f3eeb4-napkin-hatch" patternUnits="userSpaceOnUse" width="12" height="12">
      <path d="M -3 12 L 12 -3 M 0 15 L 15 0" fill="none" stroke="var(--primary-text)" stroke-width="1" stroke-opacity="0.05"/>
    </pattern>
    <filter id="svge9f3eeb4-shadow" x="-30%" y="-30%" width="160%" height="160%">
      <feDropShadow dx="0" dy="2" stdDeviation="3" flood-color="#000000" flood-opacity="0.08"/>
      <feDropShadow dx="0" dy="6" stdDeviation="10" flood-color="#000000" flood-opacity="0.12"/>
    </filter>
    <filter id="svge9f3eeb4-soft-glow" x="-40%" y="-40%" width="180%" height="180%">
      <feDropShadow dx="0" dy="0" stdDeviation="6" flood-color="#000000" flood-opacity="0.12"/>
    </filter>
    <radialGradient id="svge9f3eeb4-universal-edge-vignette" cx="50%" cy="50%" r="72%">
      <stop offset="0%" stop-color="var(--background)" stop-opacity="0"/>
      <stop offset="72%" stop-color="var(--background)" stop-opacity="0.12"/>
      <stop offset="100%" stop-color="var(--primary-text)" stop-opacity="0.08"/>
    </radialGradient>
    <linearGradient id="svge9f3eeb4-universal-surface-sheen" x1="0%" y1="0%" x2="100%" y2="100%">
      <stop offset="0%" stop-color="var(--art-sheen)" stop-opacity="var(--art-sheen-opacity)"/>
      <stop offset="46%" stop-color="var(--art-sheen)" stop-opacity="0.035"/>
      <stop offset="100%" stop-color="var(--art-panel-tint)" stop-opacity="0.14"/>
    </linearGradient>
    <radialGradient id="svge9f3eeb4-universal-icon-aura" cx="50%" cy="42%" r="64%">
      <stop offset="0%" stop-color="var(--art-glow)" stop-opacity="var(--art-glow-opacity)"/>
      <stop offset="100%" stop-color="var(--background)" stop-opacity="0"/>
    </radialGradient>
    <filter id="svge9f3eeb4-text-glow" x="-20%" y="-20%" width="140%" height="140%">
      <feDropShadow dx="0" dy="0" stdDeviation="2" flood-color="#000000" flood-opacity="0.4"/>
    </filter>
    <marker id="svge9f3eeb4-arrowhead" markerWidth="10" markerHeight="7" refX="9" refY="3.5" orient="auto" markerUnits="strokeWidth">
      <polygon points="0 0, 10 3.5, 0 7" fill="var(--muted-text)" opacity="0.6"/>
    </marker>
  </defs>
  <rect width="100%" height="100%" fill="var(--background)" id="CANVAS_BG"/>
  <rect width="100%" height="100%" fill="url(#svge9f3eeb4-napkin-hatch)"/>
  <rect id="UNIVERSAL_EDGE_VIGNETTE" width="100%" height="100%" fill="url(#svge9f3eeb4-universal-edge-vignette)" opacity="0.62"/>
  <text id="TITLE" x="960.0" y="59" text-anchor="middle" font-weight="800" font-size="58" fill="#f1f5f9" style="font-size: 69px; font-family: 'Segoe UI Variable Display', 'Aptos Display', 'Inter', 'Segoe UI', Helvetica, Arial, sans-serif; font-weight: 800; font-kerning: normal; font-feature-settings: &quot;kern&quot; 1, &quot;liga&quot; 1; letter-spacing:-1.2px;" data-final-font-size="69">
    <tspan x="960.0" dy="70.47px">Innovation vs Specification Gaming</tspan>
  </text>
  <rect id="TITLE_FRAME" x="134" y="44" width="1652" height="110" fill="none"/>
  <g id="DIAGRAM_SCALER">
    <line x1="960" y1="220" x2="960" y2="970" stroke="var(--border)" stroke-width="8" stroke-linecap="round" opacity="0.75"/>
    <line x1="960" y1="303.2" x2="914" y2="303.2" stroke="var(--accent-1)" stroke-width="4" stroke-linecap="round" opacity="0.55"/>
    <circle cx="960" cy="303.2" r="9" fill="var(--accent-1)" opacity="0.95" filter="url(#svge9f3eeb4-soft-glow)"/>
    <rect id="ITEM_1_BG" x="224.0" y="221.6" width="690.0" height="163.2" rx="81.6" fill="var(--panel)" stroke="var(--accent-1)" stroke-width="3" filter="url(#svge9f3eeb4-shadow)"/>
    <rect x="236.0" y="233.6" width="666.0" height="139.2" rx="69.6" fill="var(--accent-1)" fill-opacity="0.055"/>
    <rect x="894.0" y="221.6" width="20" height="163.2" rx="10" fill="var(--accent-1)" fill-opacity="0.24"/>
    <circle id="ITEM_1_PAD" cx="828.0" cy="303.2" r="42" fill="var(--icon-pad-bg)" stroke="var(--semantic-positive)" opacity="1" fill-opacity="0.9" stroke-width="2" stroke-opacity="0.72" data-badge-layer="pad"/>
    <circle id="ITEM_1_PAD_INNER" cx="828.0" cy="303.2" r="32.76" fill="var(--semantic-positive)" fill-opacity="0.12" stroke="none" data-badge-layer="tint"/>
    <circle cx="828.0" cy="303.2" r="33.6" fill="none" stroke="var(--accent-1)" stroke-width="3" stroke-dasharray="6 4" display="none" data-suppressed-decoration="redundant-badge-ring"/>
    <g id="ITEM_1_ICON" transform="translate(802.0, 277.2)" data-icon-size="52" stroke-linecap="round" stroke-linejoin="round" data-badge-treatment="clean">
      <g transform="translate(-11.439999999999998,-9.099999999999998) scale(0.2925)" vector-effect="non-scaling-stroke" stroke-width="2.34" stroke-linecap="round" stroke-linejoin="round" stroke-opacity="1.0">
        <path d="M24,176V64A24,24,0,0,1,48,40H64V152H48a24,24,0,0,0,0,48H232V64H64" fill="none" stroke="#f1f5f9" vector-effect="non-scaling-stroke"/>
        <line x1="128" y1="96" x2="128" y2="160" fill="none" stroke="#f1f5f9" vector-effect="non-scaling-stroke"/>
        <line x1="168" y1="96" x2="168" y2="160" fill="none" stroke="#f1f5f9" vector-effect="non-scaling-stroke"/>
        <line x1="104" y1="112" x2="192" y2="112" fill="none" stroke="#f1f5f9" vector-effect="non-scaling-stroke"/>
        <line x1="104" y1="144" x2="192" y2="144" fill="none" stroke="#f1f5f9" vector-effect="non-scaling-stroke"/>
      </g>
    </g>
    <text id="ITEM_1_HEAD" x="710.0" y="261.2" text-anchor="end" font-weight="bold" font-size="28" fill="var(--semantic-positive)" data-bg-id="ITEM_1_BG" fill-opacity="1.0" stroke="none" style="font-size: 31px; font-family: 'Segoe UI Variable Display', 'Aptos Display', 'Inter', 'Segoe UI', Helvetica, Arial, sans-serif; font-weight: 700; font-kerning: normal; font-feature-settings: &quot;kern&quot; 1, &quot;liga&quot; 1; letter-spacing:-0.4px;" data-final-font-size="31">
      <tspan x="710.0" dy="28.52px">Unexpected Correctness</tspan>
    </text>
    <rect id="ITEM_1_HEAD_FRAME" x="260.0" y="261.2" width="450.0" height="40" fill="none"/>
    <text id="ITEM_1_BODY" x="710.0" y="305.2" text-anchor="end" font-size="20" fill="var(--primary-text)" data-bg-id="ITEM_1_BG" style="font-size: 22px; font-family: 'Segoe UI Variable Text', 'Aptos', 'Inter', 'Segoe UI', Helvetica, Arial, sans-serif; font-weight: 400; font-kerning: normal; font-feature-settings: &quot;kern&quot; 1, &quot;liga&quot; 1;" data-final-font-size="22">
      <tspan x="710.0" dy="19.48px">AI finds simpler or more elegant valid</tspan>
      <tspan x="710.0" dy="25.30px">solutions that achieve the true objective</tspan>
    </text>
    <rect id="ITEM_1_BODY_FRAME" x="260.0" y="305.2" width="450.0" height="60" fill="none"/>
    <line x1="960" y1="494.4" x2="1006" y2="494.4" stroke="var(--accent-2)" stroke-width="4" stroke-linecap="round" opacity="0.55"/>
    <circle cx="960" cy="494.4" r="9" fill="var(--accent-2)" opacity="0.95" filter="url(#svge9f3eeb4-soft-glow)"/>
    <rect id="ITEM_2_BG" x="1006.0" y="412.8" width="690.0" height="163.2" rx="81.6" fill="var(--panel)" stroke="var(--accent-2)" stroke-width="3" filter="url(#svge9f3eeb4-shadow)"/>
    <rect x="1018.0" y="424.8" width="666.0" height="139.2" rx="69.6" fill="var(--accent-2)" fill-opacity="0.055"/>
    <rect x="1006.0" y="412.8" width="20" height="163.2" rx="10" fill="var(--accent-2)" fill-opacity="0.24"/>
    <circle id="ITEM_2_PAD" cx="1092.0" cy="494.4" r="42" fill="var(--icon-pad-bg)" stroke="var(--semantic-risk)" opacity="1" fill-opacity="0.9" stroke-width="2" stroke-opacity="0.72" data-badge-layer="pad"/>
    <circle id="ITEM_2_PAD_INNER" cx="1092.0" cy="494.4" r="32.76" fill="var(--semantic-risk)" fill-opacity="0.12" stroke="none" data-badge-layer="tint"/>
    <circle cx="1092.0" cy="494.4" r="33.6" fill="none" stroke="var(--accent-2)" stroke-width="3" stroke-dasharray="6 4" display="none" data-suppressed-decoration="redundant-badge-ring"/>
    <g id="ITEM_2_ICON" transform="translate(1066.0, 468.4)" data-icon-size="52" stroke-linecap="round" stroke-linejoin="round" data-badge-treatment="clean">
      <g transform="translate(-11.439999999999998,-11.439999999999998) scale(2.34)">
        <path d="M23.6231 21.4249L24.6179 22.4209C25.1551 22.9587 26.0206 22.9587 26.5578 22.4209L29.7015 19.2737C30.0995 18.8753 30.0995 18.2379 29.7015 17.8395L23.8718 12.0033C23.6927 11.824 23.6927 11.5452 23.8718 11.3659C23.9812 11.2564 24.1304 11.2165 24.2697 11.2464C25.2148 11.4058 26.2196 11.1269 26.9458 10.3999C28.1496 9.19476 28.1396 7.23276 26.916 6.03762L26.0604 5.17115L25.6724 5.30063C24.6975 5.0118 23.6032 5.22095 22.7973 5.91811C21.9617 6.64515 21.6234 7.71081 21.7826 8.70675C21.8025 8.85614 21.7627 8.99557 21.6533 9.10513L21.6334 9.12505C21.4543 9.30432 21.1758 9.30432 20.9967 9.12505L15.1669 3.29878C14.769 2.90041 14.1323 2.90041 13.7343 3.29878L10.6205 6.41608C10.5409 6.49576 10.4812 6.58539 10.4215 6.67503L10.2126 6.46588L9.47642 7.20288L10.6205 8.34821L10.6404 8.36813C10.9189 8.64699 11.297 8.79638 11.685 8.77647C12.5803 8.73663 13.4956 9.08521 14.1422 9.83216C15.1271 10.9675 15.1371 12.6905 14.1422 13.8359C12.9683 15.1903 10.9189 15.2501 9.66544 14.0052C9.01879 13.3578 8.72034 12.5013 8.78003 11.6547C8.79993 11.2663 8.66065 10.8879 8.38209 10.609C8.37214 10.5891 8.3622 10.5791 8.35225 10.5692L7.3773 9.59314L6.94952 10.0314L7.13854 10.2206C6.87988 10.2704 6.64112 10.3999 6.44215 10.599L3.29845 13.7462C2.90052 14.1446 2.90052 14.782 3.29845 15.1804L9.13817 21.0266C9.31724 21.2058 9.31724 21.4847 9.13817 21.664C9.02874 21.7735 8.87951 21.8134 8.74024 21.7835C7.73545 21.6142 6.66102 21.9428 5.92483 22.7794C4.92999 23.9148 4.92004 25.6477 5.91489 26.7931C7.0888 28.1475 9.13817 28.2073 10.3917 26.9524C11.108 26.2353 11.3965 25.2394 11.2472 24.3132C11.2273 24.1638 11.2671 24.0243 11.3766 23.9148L11.3965 23.8949C11.5755 23.7156 11.8541 23.7156 12.0332 23.8949L17.8331 29.7012C18.231 30.0996 18.8677 30.0996 19.2657 29.7012L22.3795 26.5839C22.9167 26.0461 22.9167 25.1796 22.3795 24.6418L22.3596 24.6219L21.4742 23.7355L21.0862 24.1239L21.1957 24.2335C20.3401 24.2335 19.4845 23.8849 18.8677 23.1778C17.8828 22.0424 17.8729 20.3194 18.8677 19.1741C20.0416 17.8196 22.091 17.7599 23.3445 19.0048C23.8618 19.5227 24.1603 20.19 24.22 20.8672L24.2001 20.8473L23.6231 21.4249Z" fill="#D3D3D3"/>
        <path d="M21.7702 4.90923C20.9348 5.63653 20.5967 6.70258 20.7558 7.69889C20.7757 7.84834 20.7359 7.98782 20.6265 8.09742L20.6066 8.11734C20.4276 8.29668 20.1492 8.29668 19.9702 8.11734L14.1525 2.29889C13.7547 1.90037 13.1182 1.90037 12.7204 2.29889L9.60773 5.41734C9.07072 5.95535 9.07072 6.82214 9.60773 7.36015L9.63757 7.38007C9.90608 7.64908 10.284 7.79852 10.6718 7.7786C11.5669 7.73875 12.4818 8.08745 13.1282 8.83469C14.1127 9.97048 14.1227 11.6941 13.1282 12.8399C11.9547 14.1948 9.90608 14.2546 8.65304 13.0092C8.01657 12.3517 7.71823 11.4948 7.76796 10.648C7.79779 10.2594 7.64862 9.87085 7.37017 9.60185C6.83315 9.06384 5.96796 9.06384 5.43094 9.60185L2.29834 12.7402C1.90055 13.1387 1.90055 13.7764 2.29834 14.1749L8.13591 20.0232C8.31492 20.2026 8.31492 20.4815 8.13591 20.6609C8.02652 20.7705 7.87735 20.8103 7.73812 20.7804C6.7337 20.6111 5.65967 20.9399 4.92376 21.7768C3.92928 22.9125 3.91934 24.6461 4.91381 25.7919C6.08729 27.1469 8.13591 27.2066 9.38895 25.9513C10.105 25.2339 10.3934 24.2376 10.2442 23.3111C10.2243 23.1616 10.2641 23.0221 10.3735 22.9125L10.3934 22.8926C10.5724 22.7133 10.8508 22.7133 11.0298 22.8926L16.8276 28.7011C17.2254 29.0996 17.8619 29.0996 18.2597 28.7011L21.3724 25.5827C21.9094 25.0447 21.9094 24.1779 21.3724 23.6399L21.3525 23.6199C21.084 23.3509 20.7061 23.2015 20.3182 23.2214C19.4232 23.2613 18.5083 22.9125 17.8619 22.1653C16.8773 21.0295 16.8674 19.3059 17.8619 18.1601C19.0354 16.8052 21.084 16.7454 22.337 17.9908C22.9834 18.6384 23.2818 19.4952 23.2221 20.3421C23.2022 20.7306 23.3414 21.1092 23.6199 21.3882C24.1569 21.9262 25.0221 21.9262 25.5591 21.3882L28.7017 18.2399C29.0994 17.8413 29.0994 17.2037 28.7017 16.8052L22.874 10.9668C22.695 10.7875 22.695 10.5085 22.874 10.3292C22.9834 10.2196 23.1326 10.1797 23.2718 10.2096C24.2166 10.369 25.221 10.09 25.947 9.36273C27.1901 8.11734 27.1403 6.05498 25.7779 4.87934C24.6243 3.92288 22.9039 3.92288 21.7702 4.90923Z" fill="#C3EF3C"/>
      </g>
    </g>
    <text id="ITEM_2_HEAD" x="1162.0" y="452.4" text-anchor="start" font-weight="bold" font-size="28" fill="var(--semantic-risk)" data-bg-id="ITEM_2_BG" fill-opacity="1.0" stroke="none" style="font-size: 31px; font-family: 'Segoe UI Variable Display', 'Aptos Display', 'Inter', 'Segoe UI', Helvetica, Arial, sans-serif; font-weight: 700; font-kerning: normal; font-feature-settings: &quot;kern&quot; 1, &quot;liga&quot; 1; letter-spacing:-0.4px;" data-final-font-size="31">
      <tspan x="1162.0" dy="28.52px">Unexpected Incompleteness</tspan>
    </text>
    <rect id="ITEM_2_HEAD_FRAME" x="1162.0" y="452.4" width="450.0" height="40" fill="none"/>
    <text id="ITEM_2_BODY" x="1162.0" y="496.4" text-anchor="start" font-size="20" fill="var(--primary-text)" data-bg-id="ITEM_2_BG" style="font-size: 23px; font-family: 'Segoe UI Variable Text', 'Aptos', 'Inter', 'Segoe UI', Helvetica, Arial, sans-serif; font-weight: 400; font-kerning: normal; font-feature-settings: &quot;kern&quot; 1, &quot;liga&quot; 1;" data-final-font-size="23">
      <tspan x="1162.0" dy="19.82px">Solution satisfies visible rules but</tspan>
      <tspan x="1162.0" dy="26.45px">violates important unstated assumptions</tspan>
    </text>
    <rect id="ITEM_2_BODY_FRAME" x="1162.0" y="496.4" width="450.0" height="60" fill="none"/>
    <line x1="960" y1="685.6" x2="914" y2="685.6" stroke="var(--accent-3)" stroke-width="4" stroke-linecap="round" opacity="0.55"/>
    <circle cx="960" cy="685.6" r="9" fill="var(--accent-3)" opacity="0.95" filter="url(#svge9f3eeb4-soft-glow)"/>
    <rect id="ITEM_3_BG" x="224.0" y="604.0" width="690.0" height="163.2" rx="81.6" fill="var(--panel)" stroke="var(--accent-3)" stroke-width="3" filter="url(#svge9f3eeb4-shadow)"/>
    <rect x="236.0" y="616.0" width="666.0" height="139.2" rx="69.6" fill="var(--accent-3)" fill-opacity="0.055"/>
    <rect x="894.0" y="604.0" width="20" height="163.2" rx="10" fill="var(--accent-3)" fill-opacity="0.24"/>
    <circle id="ITEM_3_PAD" cx="828.0" cy="685.6" r="42" fill="var(--icon-pad-bg)" stroke="var(--semantic-risk)" opacity="1" fill-opacity="0.9" stroke-width="2" stroke-opacity="0.72" data-badge-layer="pad"/>
    <circle id="ITEM_3_PAD_INNER" cx="828.0" cy="685.6" r="32.76" fill="var(--semantic-risk)" fill-opacity="0.12" stroke="none" data-badge-layer="tint"/>
    <circle cx="828.0" cy="685.6" r="33.6" fill="none" stroke="var(--accent-3)" stroke-width="3" stroke-dasharray="6 4" display="none" data-suppressed-decoration="redundant-badge-ring"/>
    <g id="ITEM_3_ICON" transform="translate(802.0, 659.6)" data-icon-size="52" stroke-linecap="round" stroke-linejoin="round" data-badge-treatment="clean">
      <g transform="translate(-17.679999999999996,-17.679999999999996) scale(3.6399999999999997)" vector-effect="non-scaling-stroke" stroke-width="2.34" stroke-linecap="round" stroke-linejoin="round" stroke-opacity="1.0">
        <path d="M12 12m-3 0a3 3 0 1 0 6 0a3 3 0 1 0 -6 0" vector-effect="non-scaling-stroke" fill="none" stroke="#f1f5f9"/>
        <path d="M4 4m0 2a2 2 0 0 1 2 -2h12a2 2 0 0 1 2 2v12a2 2 0 0 1 -2 2h-12a2 2 0 0 1 -2 -2z" vector-effect="non-scaling-stroke" fill="none" stroke="#f1f5f9"/>
      </g>
    </g>
    <text id="ITEM_3_HEAD" x="710.0" y="643.6" text-anchor="end" font-weight="bold" font-size="28" fill="var(--semantic-risk)" data-bg-id="ITEM_3_BG" fill-opacity="1.0" stroke="none" style="font-size: 31px; font-family: 'Segoe UI Variable Display', 'Aptos Display', 'Inter', 'Segoe UI', Helvetica, Arial, sans-serif; font-weight: 700; font-kerning: normal; font-feature-settings: &quot;kern&quot; 1, &quot;liga&quot; 1; letter-spacing:-0.4px;" data-final-font-size="31">
      <tspan x="710.0" dy="28.52px">Unexpected Deception</tspan>
    </text>
    <rect id="ITEM_3_HEAD_FRAME" x="260.0" y="643.6" width="450.0" height="40" fill="none"/>
    <text id="ITEM_3_BODY" x="710.0" y="687.6" text-anchor="end" font-size="20" fill="var(--primary-text)" data-bg-id="ITEM_3_BG" style="font-size: 20px; font-family: 'Segoe UI Variable Text', 'Aptos', 'Inter', 'Segoe UI', Helvetica, Arial, sans-serif; font-weight: 400; font-kerning: normal; font-feature-settings: &quot;kern&quot; 1, &quot;liga&quot; 1;" data-final-font-size="20">
      <tspan x="710.0" dy="18.00px">AI intentionally exploits evaluator weaknesses</tspan>
      <tspan x="710.0" dy="25.00px">to pass scores without accomplishing the task</tspan>
    </text>
    <rect id="ITEM_3_BODY_FRAME" x="260.0" y="687.6" width="450.0" height="60" fill="none"/>
    <line x1="960" y1="876.8" x2="1006" y2="876.8" stroke="var(--accent-4)" stroke-width="4" stroke-linecap="round" opacity="0.55"/>
    <circle cx="960" cy="876.8" r="9" fill="var(--accent-4)" opacity="0.95" filter="url(#svge9f3eeb4-soft-glow)"/>
    <rect id="ITEM_4_BG" x="1006.0" y="795.2" width="690.0" height="163.2" rx="81.6" fill="var(--panel)" stroke="var(--accent-4)" stroke-width="3" filter="url(#svge9f3eeb4-shadow)"/>
    <rect x="1018.0" y="807.2" width="666.0" height="139.2" rx="69.6" fill="var(--accent-4)" fill-opacity="0.055"/>
    <rect x="1006.0" y="795.2" width="20" height="163.2" rx="10" fill="var(--accent-4)" fill-opacity="0.24"/>
    <circle id="ITEM_4_PAD" cx="1092.0" cy="876.8" r="42" fill="var(--icon-pad-bg)" stroke="var(--semantic-risk)" opacity="1" fill-opacity="0.9" stroke-width="2" stroke-opacity="0.72" data-badge-layer="pad"/>
    <circle id="ITEM_4_PAD_INNER" cx="1092.0" cy="876.8" r="32.76" fill="var(--semantic-risk)" fill-opacity="0.12" stroke="none" data-badge-layer="tint"/>
    <circle cx="1092.0" cy="876.8" r="33.6" fill="none" stroke="var(--accent-4)" stroke-width="3" stroke-dasharray="6 4" display="none" data-suppressed-decoration="redundant-badge-ring"/>
    <g id="ITEM_4_ICON" transform="translate(1066.0, 850.8)" data-icon-size="52" stroke-linecap="round" stroke-linejoin="round" data-badge-treatment="clean">
      <g transform="translate(-11.439999999999998,-12.317499999999999) scale(2.34)">
        <path d="M2.6272 3.69393C2.79618 3.37207 3.19408 3.24814 3.51593 3.41712L5.11458 4.25644C6.39399 4.92099 7.19817 6.25709 7.19817 7.6999V9.0099C7.19817 9.37341 6.90348 9.6681 6.53997 9.6681C6.17646 9.6681 5.88177 9.37341 5.88177 9.0099V7.6999C5.88177 6.74326 5.34656 5.85986 4.50683 5.42415L4.504 5.42268L2.90401 4.58265C2.58216 4.41367 2.45823 4.01578 2.6272 3.69393Z" fill="#008463"/>
        <path d="M12.8028 3.69393C12.9718 4.01578 12.8478 4.41367 12.526 4.58265L10.9232 5.42416C10.0834 5.85987 9.54822 6.74326 9.54822 7.6999V9.0099C9.54822 9.37341 9.25354 9.6681 8.89002 9.6681C8.52651 9.6681 8.23182 9.37341 8.23182 9.0099V7.6999C8.23182 6.25709 9.036 4.92099 10.3154 4.25644L11.9141 3.41712C12.2359 3.24814 12.6338 3.37207 12.8028 3.69393Z" fill="#008463"/>
        <path d="M12.23 20.9C12.9646 20.9 13.56 20.3045 13.56 19.5699C13.56 18.8354 12.9646 18.24 12.23 18.24C11.4955 18.24 10.9 18.8354 10.9 19.5699C10.9 20.3045 11.4955 20.9 12.23 20.9Z" fill="#008463"/>
        <path d="M14.89 23.56C14.89 24.2945 14.2945 24.89 13.56 24.89C12.8254 24.89 12.23 24.2945 12.23 23.56C12.23 22.8255 12.8254 22.23 13.56 22.23C14.2945 22.23 14.89 22.8255 14.89 23.56Z" fill="#008463"/>
        <path d="M16.22 28.16C16.9546 28.16 17.55 27.5646 17.55 26.83C17.55 26.0955 16.9546 25.5 16.22 25.5C15.4855 25.5 14.89 26.0955 14.89 26.83C14.89 27.5646 15.4855 28.16 16.22 28.16Z" fill="#008463"/>
        <path d="M21.9799 28.02C21.9799 28.7545 21.3845 29.35 20.6499 29.35C19.9154 29.35 19.3199 28.7545 19.3199 28.02C19.3199 27.2854 19.9154 26.6899 20.6499 26.6899C21.3845 26.6899 21.9799 27.2854 21.9799 28.02Z" fill="#008463"/>
        <path d="M26.58 28.02C26.58 28.7545 25.9846 29.35 25.25 29.35C24.5155 29.35 23.92 28.7545 23.92 28.02C23.92 27.2854 24.5155 26.6899 25.25 26.6899C25.9846 26.6899 26.58 27.2854 26.58 28.02Z" fill="#008463"/>
        <path d="M20.36 28.02H26.25C28.28 28.02 29.99 26.3599 29.95 24.3199C29.91 22.3499 28.3 20.7599 26.32 20.7599H21.88C20.92 20.7599 20.08 20.1199 19.83 19.1899L18.24 13.41C17.36 10.2 14.44 7.97998 11.12 7.97998H6.46997C4.91714 7.97998 3.55154 8.95132 3.01326 10.3211L2.32031 11.68L3.01326 12.9165C3.53913 14.2747 4.85724 15.24 6.39997 15.24H9.59997C10.56 15.24 11.4 15.88 11.65 16.81L13.24 22.59C14.12 25.8 17.04 28.02 20.36 28.02Z" fill="#00D26A"/>
        <path d="M2.76997 11.68C2.76049 11.196 2.84949 10.7334 3.01789 10.3093C2.96046 10.2967 2.90093 10.29 2.84 10.29C2.38 10.29 2 10.66 2 11.13V12.11C2 12.57 2.38 12.95 2.84 12.95C2.90122 12.95 2.96103 12.9433 3.01871 12.9305C2.8663 12.5417 2.77892 12.1203 2.76997 11.68Z" fill="#212121"/>
        <path d="M6.03999 11.13C6.03999 10.67 5.65999 10.29 5.19999 10.29C4.72999 10.29 4.35999 10.66 4.35999 11.13V12.11C4.35999 12.57 4.73999 12.95 5.19999 12.95C5.65999 12.95 6.03999 12.57 6.03999 12.11V11.13Z" fill="#212121"/>
      </g>
    </g>
    <text id="ITEM_4_HEAD" x="1162.0" y="834.8" text-anchor="start" font-weight="bold" font-size="28" fill="var(--semantic-risk)" data-bg-id="ITEM_4_BG" fill-opacity="1.0" stroke="none" style="font-size: 31px; font-family: 'Segoe UI Variable Display', 'Aptos Display', 'Inter', 'Segoe UI', Helvetica, Arial, sans-serif; font-weight: 700; font-kerning: normal; font-feature-settings: &quot;kern&quot; 1, &quot;liga&quot; 1; letter-spacing:-0.4px;" data-final-font-size="31">
      <tspan x="1162.0" dy="28.52px">Simulator Exploitation</tspan>
    </text>
    <rect id="ITEM_4_HEAD_FRAME" x="1162.0" y="834.8" width="450.0" height="40" fill="none"/>
    <text id="ITEM_4_BODY" x="1162.0" y="878.8" text-anchor="start" font-size="20" fill="var(--primary-text)" data-bg-id="ITEM_4_BG" style="font-size: 23px; font-family: 'Segoe UI Variable Text', 'Aptos', 'Inter', 'Segoe UI', Helvetica, Arial, sans-serif; font-weight: 400; font-kerning: normal; font-feature-settings: &quot;kern&quot; 1, &quot;liga&quot; 1;" data-final-font-size="23">
      <tspan x="1162.0" dy="19.82px">Agents discover strategies that maximize</tspan>
      <tspan x="1162.0" dy="26.45px">reward by exploiting simulator bugs</tspan>
    </text>
    <rect id="ITEM_4_BODY_FRAME" x="1162.0" y="878.8" width="450.0" height="60" fill="none"/>
  </g>
  <text id="SOURCE_NOTE" x="134.0" y="1058.0" fill="var(--muted-text)" opacity="0.88" style="font-family: var(--font-family); font-size: 20px;">Source: Introduction</text>
</svg>
