<?xml version='1.0' encoding='utf-8'?>
<svg xmlns="http://www.w3.org/2000/svg" width="1920" height="1080" viewBox="0 0 1920 1080" data-theme="light" data-semantic-intent="compare" data-relation-type="taxonomy" data-site-visual-identity="signal-cobalt">
  <style>
        @font-face {
            font-family: 'Inter';
            src: url('assets/fonts/Inter-Regular.ttf') format('truetype');
            font-weight: 400;
            font-style: normal;
            font-display: swap;
        }
        @font-face {
            font-family: 'Inter';
            src: url('assets/fonts/Inter-Bold.ttf') format('truetype');
            font-weight: 600;
            font-style: normal;
            font-display: swap;
        }
        @font-face {
            font-family: 'Inter';
            src: url('assets/fonts/Inter-Bold.ttf') format('truetype');
            font-weight: 800;
            font-style: normal;
            font-display: swap;
        }
        
:root {
    --background: #f8fafc;
    --panel: #ffffff;
    --primary-text: #0f172a;
    --muted-text: #64748b;
    --inverse-text: #ffffff;
    --border: #e2e8f0;
    --shadow-color: #000000;
    --icon-pad-bg: #1e293b;
    --art-glow: #0891b2;
    --art-glow-opacity: 0.10;
    --art-sheen: #ffffff;
    --art-sheen-opacity: 0.34;
    --art-shadow: #0f172a;
    --art-shadow-opacity: 0.14;
    --art-muted-line: #94a3b8;
    --art-panel-tint: #f1f5f9;
    --semantic-risk: #b91c1c;
    --semantic-warning: #c2410c;
    --semantic-uncertain: #a16207;
    --semantic-evidence: #1d4ed8;
    --semantic-claim: #6d28d9;
    --semantic-positive: #15803d;
    --semantic-outcome: #0e7490;
    --font-family: 'Inter', 'Segoe UI', 'Kalam', Roboto, Helvetica, Arial, sans-serif;
    --radius-xl: 16px;
    --font-family-headline: 'Segoe UI Variable Display', 'Aptos Display', 'Inter', 'Segoe UI', Helvetica, Arial, sans-serif;
    --font-family-body: 'Segoe UI Variable Text', 'Aptos', 'Inter', 'Segoe UI', Helvetica, Arial, sans-serif;
    --font-heading: var(--font-family-headline);
    --font-body: var(--font-family-body);
    --font-size-h1: 64px;
    --font-size-h2: 42px;
    --font-size-h3: 29px;
    --font-size-body: 21px;
    --font-size-caption: 17px;
    --secondary-text: var(--muted-text);
    --panel-border: var(--border);
    --font-weight-normal: 400;
    --font-weight-medium: 500;
    --font-weight-semibold: 600;
    --font-weight-bold: 700;
    --spacing-gutter-pct: 0.07;
    --spacing-top-pct: 0.15;
    --spacing-bottom-pct: 0.07;
    --spacing-title-y-pct: 0.055;
    --accent-1: #1d4ed8;
    --accent-2: #2563eb;
    --accent-3: #4f46e5;
    --accent-4: #6d28d9;
    --accent-5: #0369a1;
    --accent-6: #c2410c;
}
:root[data-theme="dark"] {
    --background: #0f172a;
    --panel: #1e293b;
    --primary-text: #f1f5f9;
    --muted-text: #94a3b8;
    --inverse-text: #0f172a;
    --border: #334155;
    --shadow-color: #000000;
    --icon-pad-bg: #1e293b;
    --art-glow: #7dd3fc;
    --art-glow-opacity: 0.18;
    --art-sheen: #ffffff;
    --art-sheen-opacity: 0.18;
    --art-shadow: #000000;
    --art-shadow-opacity: 0.28;
    --art-muted-line: #64748b;
    --art-panel-tint: #1e293b;
    --semantic-risk: #f87171;
    --semantic-warning: #fb923c;
    --semantic-uncertain: #fbbf24;
    --semantic-evidence: #60a5fa;
    --semantic-claim: #c084fc;
    --semantic-positive: #4ade80;
    --semantic-outcome: #22d3ee;
    --accent-1: #93c5fd;
    --accent-2: #60a5fa;
    --accent-3: #818cf8;
    --accent-4: #a78bfa;
    --accent-5: #38bdf8;
    --accent-6: #fb923c;
}
:root[data-theme="light"] {
    --background: #f8fafc;
    --panel: #ffffff;
    --primary-text: #0f172a;
    --muted-text: #64748b;
    --inverse-text: #ffffff;
    --border: #e2e8f0;
    --shadow-color: #000000;
    --icon-pad-bg: #1e293b;
    --art-glow: #0891b2;
    --art-glow-opacity: 0.10;
    --art-sheen: #ffffff;
    --art-sheen-opacity: 0.34;
    --art-shadow: #0f172a;
    --art-shadow-opacity: 0.14;
    --art-muted-line: #94a3b8;
    --art-panel-tint: #f1f5f9;
    --semantic-risk: #b91c1c;
    --semantic-warning: #c2410c;
    --semantic-uncertain: #a16207;
    --semantic-evidence: #1d4ed8;
    --semantic-claim: #6d28d9;
    --semantic-positive: #15803d;
    --semantic-outcome: #0e7490;
    --accent-1: #1d4ed8;
    --accent-2: #2563eb;
    --accent-3: #4f46e5;
    --accent-4: #6d28d9;
    --accent-5: #0369a1;
    --accent-6: #c2410c;
}</style>
  <rect x="0" y="0" width="1.92E+3" height="1.08E+3" fill="#252a34" stroke="none" id="programmatic_background"/>
  <line id="HEADER_DECOR" x1="960.0" x2="1080.0" y1="107.0" y2="107.0" stroke="var(--accent-1)" stroke-width="6" stroke-linecap="round"/>
  <defs>
    <pattern id="svg2ea3bd32-napkin-hatch" patternUnits="userSpaceOnUse" width="12" height="12">
      <path d="M -3 12 L 12 -3 M 0 15 L 15 0" fill="none" stroke="var(--primary-text)" stroke-width="1" stroke-opacity="0.05"/>
    </pattern>
    <filter id="svg2ea3bd32-shadow" x="-30%" y="-30%" width="160%" height="160%">
      <feDropShadow dx="0" dy="2" stdDeviation="3" flood-color="#000000" flood-opacity="0.08"/>
      <feDropShadow dx="0" dy="6" stdDeviation="10" flood-color="#000000" flood-opacity="0.12"/>
    </filter>
    <filter id="svg2ea3bd32-soft-glow" x="-40%" y="-40%" width="180%" height="180%">
      <feDropShadow dx="0" dy="0" stdDeviation="6" flood-color="#000000" flood-opacity="0.12"/>
    </filter>
    <radialGradient id="svg2ea3bd32-universal-edge-vignette" cx="50%" cy="50%" r="72%">
      <stop offset="0%" stop-color="var(--background)" stop-opacity="0"/>
      <stop offset="72%" stop-color="var(--background)" stop-opacity="0.12"/>
      <stop offset="100%" stop-color="var(--primary-text)" stop-opacity="0.08"/>
    </radialGradient>
    <linearGradient id="svg2ea3bd32-universal-surface-sheen" x1="0%" y1="0%" x2="100%" y2="100%">
      <stop offset="0%" stop-color="var(--art-sheen)" stop-opacity="var(--art-sheen-opacity)"/>
      <stop offset="46%" stop-color="var(--art-sheen)" stop-opacity="0.035"/>
      <stop offset="100%" stop-color="var(--art-panel-tint)" stop-opacity="0.14"/>
    </linearGradient>
    <radialGradient id="svg2ea3bd32-universal-icon-aura" cx="50%" cy="42%" r="64%">
      <stop offset="0%" stop-color="var(--art-glow)" stop-opacity="var(--art-glow-opacity)"/>
      <stop offset="100%" stop-color="var(--background)" stop-opacity="0"/>
    </radialGradient>
    <filter id="svg2ea3bd32-text-glow" x="-20%" y="-20%" width="140%" height="140%">
      <feDropShadow dx="0" dy="0" stdDeviation="2" flood-color="#000000" flood-opacity="0.4"/>
    </filter>
    <marker id="svg2ea3bd32-arrowhead" markerWidth="10" markerHeight="7" refX="9" refY="3.5" orient="auto" markerUnits="strokeWidth">
      <polygon points="0 0, 10 3.5, 0 7" fill="var(--muted-text)" opacity="0.6"/>
    </marker>
  </defs>
  <rect width="100%" height="100%" fill="var(--background)" id="CANVAS_BG"/>
  <rect width="100%" height="100%" fill="url(#svg2ea3bd32-napkin-hatch)"/>
  <rect id="UNIVERSAL_EDGE_VIGNETTE" width="100%" height="100%" fill="url(#svg2ea3bd32-universal-edge-vignette)" opacity="0.62"/>
  <text id="TITLE" x="960.0" y="59" text-anchor="middle" font-weight="800" font-size="58" fill="#0f172a" style="font-size: 69px; font-family: 'Segoe UI Variable Display', 'Aptos Display', 'Inter', 'Segoe UI', Helvetica, Arial, sans-serif; font-weight: 800; font-kerning: normal; font-feature-settings: &quot;kern&quot; 1, &quot;liga&quot; 1; letter-spacing:-1.2px;" data-final-font-size="69">
    <tspan x="960.0" dy="70.47px">AI Shutdown Capability vs Incentives</tspan>
  </text>
  <rect id="TITLE_FRAME" x="134" y="44" width="1652" height="110" fill="none"/>
  <g id="DIAGRAM_SCALER">
    <line x1="960" y1="220" x2="960" y2="970" stroke="var(--border)" stroke-width="8" stroke-linecap="round" opacity="0.75"/>
    <line x1="960" y1="303.2" x2="914" y2="303.2" stroke="var(--accent-1)" stroke-width="4" stroke-linecap="round" opacity="0.55"/>
    <circle cx="960" cy="303.2" r="9" fill="var(--accent-1)" opacity="0.95" filter="url(#svg2ea3bd32-soft-glow)"/>
    <rect id="ITEM_1_BG" x="224.0" y="221.6" width="690.0" height="163.2" rx="81.6" fill="var(--panel)" stroke="var(--accent-1)" stroke-width="3" filter="url(#svg2ea3bd32-shadow)"/>
    <rect x="236.0" y="233.6" width="666.0" height="139.2" rx="69.6" fill="var(--accent-1)" fill-opacity="0.055"/>
    <rect x="894.0" y="221.6" width="20" height="163.2" rx="10" fill="var(--accent-1)" fill-opacity="0.24"/>
    <circle id="ITEM_1_PAD" cx="828.0" cy="303.2" r="42" fill="var(--icon-pad-bg)" stroke="var(--accent-1)" opacity="1" fill-opacity="0.9" stroke-width="2" stroke-opacity="0.72" data-badge-layer="pad"/>
    <circle id="ITEM_1_PAD_INNER" cx="828.0" cy="303.2" r="32.76" fill="var(--accent-1)" fill-opacity="0.12" stroke="none" data-badge-layer="tint"/>
    <circle cx="828.0" cy="303.2" r="33.6" fill="none" stroke="var(--accent-1)" stroke-width="3" stroke-dasharray="6 4" display="none" data-suppressed-decoration="redundant-badge-ring"/>
    <g id="ITEM_1_ICON" transform="translate(802.0, 277.2)" data-icon-size="52" stroke-linecap="round" stroke-linejoin="round" data-badge-treatment="clean">
      <g transform="translate(-6.759999999999999,-6.759999999999998) scale(2.73)" vector-effect="non-scaling-stroke" stroke-width="2.34" stroke-linecap="round" stroke-linejoin="round" stroke-opacity="1.0">
        <path fill="none" fill-rule="evenodd" d="M22.429 9.80725c-0.4481 -1.60857 -1.338 -3.0594 -2.5687 -4.18794 -1.2271 -1.10731 -2.7113 -1.89063 -4.3179 -2.27888 -0.0755 -0.01846 -0.1552 -0.00689 -0.2223 0.03227 -0.0671 0.03915 -0.1164 0.10283 -0.1375 0.17763 -0.0107 0.03675 -0.014 0.07525 -0.0097 0.11327 0.0043 0.03803 0.0161 0.07483 0.0347 0.10828 0.0185 0.03346 0.0436 0.0629 0.0736 0.08663s0.0644 0.04128 0.1013 0.05164c1.495 0.39389 2.8688 1.15291 3.998 2.20891 1.0991 1.05735 1.8814 2.40041 2.2589 3.8781 0.3191 1.43064 0.3733 2.90764 0.1599 4.35784 -0.196 1.4357 -0.7267 2.8052 -1.5492 3.998 -0.8343 1.3019 -1.9646 2.388 -3.2986 3.1697 -1.3341 0.7817 -2.8341 1.2368 -4.3777 1.3281 -1.5404 0.0802 -3.07865 -0.1945 -4.49617 -0.8027 -1.41752 -0.6083 -2.67646 -1.5339 -3.67976 -2.7055 -0.96577 -1.188 -1.64781 -2.5806 -1.99422 -4.0719 -0.3464 -1.4912 -0.34805 -3.0419 -0.0048 -4.5339 0.30374 -1.47128 0.96641 -2.84468 1.92905 -3.99804 0.96198 -1.11325 2.18926 -1.96582 3.56825 -2.47878 0.08273 -0.03149 0.14992 -0.09402 0.18725 -0.17429s0.04187 -0.17194 0.01265 -0.2555c-0.03149 -0.08274 -0.09402 -0.14992 -0.17429 -0.18725 -0.08027 -0.03734 -0.17194 -0.04188 -0.2555 -0.01265 -1.53964 0.52665 -2.91691 1.44254 -3.99803 2.65869 -1.0521 1.22331 -1.78975 2.6849 -2.14895 4.25792 -0.39989 1.6227 -0.42042 3.3157 -0.05997 4.9476 0.35927 1.6413 1.08729 3.1794 2.12895 4.4977 1.09017 1.3143 2.46924 2.3589 4.02963 3.0524 1.56038 0.6935 3.25991 1.0172 4.96591 0.9457 1.707 -0.105 3.3648 -0.6125 4.838 -1.4812 1.4731 -0.8686 2.7198 -2.0736 3.6379 -3.5164 0.8843 -1.3371 1.4392 -2.8648 1.6192 -4.4578 0.2178 -1.5774 0.133 -3.1819 -0.2499 -4.72765Z" clip-rule="evenodd" vector-effect="non-scaling-stroke" stroke="#f1f5f9"/>
        <path fill="none" fill-rule="evenodd" d="M11.8342 10.5769c0.1054 0.0028 0.2079 -0.0351 0.2861 -0.1058 0.0781 -0.0707 0.1261 -0.1689 0.1337 -0.274 0.14 -0.99954 0.3399 -2.17896 0.4498 -3.39836 0.0483 -0.48826 0.0716 -0.97865 0.07 -1.46928V3.86018c-0.0649 -1.16064 -0.2051 -2.31584 -0.4198 -3.4583 -0.0151 -0.118505 -0.0756 -0.226504 -0.1689 -0.301128 -0.0933 -0.0746238 -0.212 -0.11001336 -0.3309 -0.09867502 -0.1177 0.01498562 -0.2248 0.07593412 -0.2979 0.16955402 -0.073 0.093619 -0.106 0.212315 -0.0919 0.3302 0 0.859579 -0.0799 2.078979 -0.1399 3.448309 0 0.74963 -0.08 1.53924 -0.07 2.31886 0 1.38931 0.1599 2.74864 0.2099 3.8981 -0.0027 0.0512 0.0048 0.1024 0.0219 0.1507 0.0171 0.0484 0.0436 0.0928 0.078 0.1309 0.0344 0.0381 0.0759 0.069 0.1222 0.091 0.0463 0.022 0.0965 0.0346 0.1477 0.0372Z" clip-rule="evenodd" vector-effect="non-scaling-stroke" stroke="#f1f5f9"/>
      </g>
    </g>
    <text id="ITEM_1_HEAD" x="710.0" y="261.2" text-anchor="end" font-weight="bold" font-size="28" fill="var(--accent-1)" data-bg-id="ITEM_1_BG" fill-opacity="1.0" style="font-size: 31px; font-family: 'Segoe UI Variable Display', 'Aptos Display', 'Inter', 'Segoe UI', Helvetica, Arial, sans-serif; font-weight: 700; font-kerning: normal; font-feature-settings: &quot;kern&quot; 1, &quot;liga&quot; 1; letter-spacing:-0.4px;" data-final-font-size="31">
      <tspan x="710.0" dy="28.52px">Hardware Control</tspan>
    </text>
    <rect id="ITEM_1_HEAD_FRAME" x="260.0" y="261.2" width="450.0" height="40" fill="none"/>
    <text id="ITEM_1_BODY" x="710.0" y="305.2" text-anchor="end" font-size="20" fill="var(--primary-text)" data-bg-id="ITEM_1_BG" style="font-size: 23px; font-family: 'Segoe UI Variable Text', 'Aptos', 'Inter', 'Segoe UI', Helvetica, Arial, sans-serif; font-weight: 400; font-kerning: normal; font-feature-settings: &quot;kern&quot; 1, &quot;liga&quot; 1;" data-final-font-size="23">
      <tspan x="710.0" dy="19.82px">The technical ability for humans</tspan>
      <tspan x="710.0" dy="26.45px">to stop the system</tspan>
    </text>
    <rect id="ITEM_1_BODY_FRAME" x="260.0" y="305.2" width="450.0" height="60" fill="none"/>
    <line x1="960" y1="494.4" x2="1006" y2="494.4" stroke="var(--accent-2)" stroke-width="4" stroke-linecap="round" opacity="0.55"/>
    <circle cx="960" cy="494.4" r="9" fill="var(--accent-2)" opacity="0.95" filter="url(#svg2ea3bd32-soft-glow)"/>
    <rect id="ITEM_2_BG" x="1006.0" y="412.8" width="690.0" height="163.2" rx="81.6" fill="var(--panel)" stroke="var(--accent-2)" stroke-width="3" filter="url(#svg2ea3bd32-shadow)"/>
    <rect x="1018.0" y="424.8" width="666.0" height="139.2" rx="69.6" fill="var(--accent-2)" fill-opacity="0.055"/>
    <rect x="1006.0" y="412.8" width="20" height="163.2" rx="10" fill="var(--accent-2)" fill-opacity="0.24"/>
    <circle id="ITEM_2_PAD" cx="1092.0" cy="494.4" r="42" fill="var(--icon-pad-bg)" stroke="var(--accent-2)" opacity="1" fill-opacity="0.9" stroke-width="2" stroke-opacity="0.72" data-badge-layer="pad"/>
    <circle id="ITEM_2_PAD_INNER" cx="1092.0" cy="494.4" r="32.76" fill="var(--accent-2)" fill-opacity="0.12" stroke="none" data-badge-layer="tint"/>
    <circle cx="1092.0" cy="494.4" r="33.6" fill="none" stroke="var(--accent-2)" stroke-width="3" stroke-dasharray="6 4" display="none" data-suppressed-decoration="redundant-badge-ring"/>
    <g id="ITEM_2_ICON" transform="translate(1066.0, 468.4)" data-icon-size="52" stroke-linecap="round" stroke-linejoin="round" data-badge-treatment="clean">
      <g transform="translate(-11.439999999999998,-11.439999999999998) scale(2.34)">
        <path d="M15.5 28C21.8513 28 27 22.8513 27 16.5C27 10.1487 21.8513 5 15.5 5C9.14873 5 4 10.1487 4 16.5C4 22.8513 9.14873 28 15.5 28Z" fill="#F4F4F4"/>
        <path d="M25.7663 7.73298C26.1431 7.9044 26.5609 8 27 8C28.65 8 30 6.65 30 5C30 3.35 28.65 2 27 2C25.35 2 24 3.35 24 5C24 5.43909 24.0956 5.85693 24.267 6.23373C21.9083 4.21752 18.8463 3 15.5 3C8.04416 3 2 9.04416 2 16.5C2 23.9558 8.04416 30 15.5 30C22.9558 30 29 23.9558 29 16.5C29 13.1537 27.7825 10.0917 25.7663 7.73298ZM25.39 4.99C25.39 4.1 26.11 3.38 27 3.38C27.88 3.38 28.61 4.1 28.61 4.99C28.61 5.88 27.89 6.6 27 6.6C26.11 6.6 25.39 5.88 25.39 4.99ZM26 16.5C26 22.299 21.299 27 15.5 27C9.70101 27 5 22.299 5 16.5C5 10.701 9.70101 6 15.5 6C21.299 6 26 10.701 26 16.5Z" fill="#F9C23C"/>
        <path d="M25.35 7.99994L23.99 6.63994L25.35 5.27994C25.72 4.90994 26.33 4.90994 26.71 5.27994C27.08 5.64994 27.08 6.25994 26.71 6.63994L25.35 7.99994Z" fill="#FFB02E"/>
        <path d="M13.2234 17.724L11.4099 20.21C11.2299 20.45 11.5299 20.75 11.7799 20.58L14.2735 18.7609L15.2099 24.7499C15.2599 25.0799 15.7399 25.0799 15.7899 24.7499L16.8663 17.8663L23.7499 16.7899C24.0799 16.7399 24.0799 16.2599 23.7499 16.2099L17.7609 15.2735L19.5799 12.78C19.7599 12.54 19.4599 12.24 19.2099 12.41L16.724 14.2234L15.7899 8.24994C15.7399 7.91994 15.2599 7.91994 15.2099 8.24994L14.1336 15.1336L7.24994 16.2099C6.91994 16.2599 6.91994 16.7399 7.24994 16.7899L13.2234 17.724Z" fill="#9B9B9B"/>
        <path d="M17.3382 15L20.9393 21.3271C21.1631 21.7255 20.7252 22.1629 20.3261 21.9394L14 18.3336L17.3382 15Z" fill="#9B9B9B"/>
        <path d="M13.6756 18L10.0605 11.672C9.83756 11.2741 10.2737 10.8373 10.6711 11.0606L17 14.671L13.6756 18Z" fill="#E5336D"/>
        <path d="M15.5 19C16.8807 19 18 17.8807 18 16.5C18 15.1193 16.8807 14 15.5 14C14.1193 14 13 15.1193 13 16.5C13 17.8807 14.1193 19 15.5 19Z" fill="#D3D3D3"/>
      </g>
    </g>
    <text id="ITEM_2_HEAD" x="1162.0" y="452.4" text-anchor="start" font-weight="bold" font-size="28" fill="var(--accent-2)" data-bg-id="ITEM_2_BG" fill-opacity="1.0" style="font-size: 31px; font-family: 'Segoe UI Variable Display', 'Aptos Display', 'Inter', 'Segoe UI', Helvetica, Arial, sans-serif; font-weight: 700; font-kerning: normal; font-feature-settings: &quot;kern&quot; 1, &quot;liga&quot; 1; letter-spacing:-0.4px;" data-final-font-size="31">
      <tspan x="1162.0" dy="28.52px">Objective Alignment</tspan>
    </text>
    <rect id="ITEM_2_HEAD_FRAME" x="1162.0" y="452.4" width="450.0" height="40" fill="none"/>
    <text id="ITEM_2_BODY" x="1162.0" y="496.4" text-anchor="start" font-size="20" fill="var(--primary-text)" data-bg-id="ITEM_2_BG" style="font-size: 23px; font-family: 'Segoe UI Variable Text', 'Aptos', 'Inter', 'Segoe UI', Helvetica, Arial, sans-serif; font-weight: 400; font-kerning: normal; font-feature-settings: &quot;kern&quot; 1, &quot;liga&quot; 1;" data-final-font-size="23">
      <tspan x="1162.0" dy="19.82px">Ensuring the AI has no reason to resist</tspan>
      <tspan x="1162.0" dy="26.45px">intervention</tspan>
    </text>
    <rect id="ITEM_2_BODY_FRAME" x="1162.0" y="496.4" width="450.0" height="60" fill="none"/>
    <line x1="960" y1="685.6" x2="914" y2="685.6" stroke="var(--accent-3)" stroke-width="4" stroke-linecap="round" opacity="0.55"/>
    <circle cx="960" cy="685.6" r="9" fill="var(--accent-3)" opacity="0.95" filter="url(#svg2ea3bd32-soft-glow)"/>
    <rect id="ITEM_3_BG" x="224.0" y="604.0" width="690.0" height="163.2" rx="81.6" fill="var(--panel)" stroke="var(--accent-3)" stroke-width="3" filter="url(#svg2ea3bd32-shadow)"/>
    <rect x="236.0" y="616.0" width="666.0" height="139.2" rx="69.6" fill="var(--accent-3)" fill-opacity="0.055"/>
    <rect x="894.0" y="604.0" width="20" height="163.2" rx="10" fill="var(--accent-3)" fill-opacity="0.24"/>
    <circle id="ITEM_3_PAD" cx="828.0" cy="685.6" r="42" fill="var(--icon-pad-bg)" stroke="var(--accent-3)" opacity="1" fill-opacity="0.9" stroke-width="2" stroke-opacity="0.72" data-badge-layer="pad"/>
    <circle id="ITEM_3_PAD_INNER" cx="828.0" cy="685.6" r="32.76" fill="var(--accent-3)" fill-opacity="0.12" stroke="none" data-badge-layer="tint"/>
    <circle cx="828.0" cy="685.6" r="33.6" fill="none" stroke="var(--accent-3)" stroke-width="3" stroke-dasharray="6 4" display="none" data-suppressed-decoration="redundant-badge-ring"/>
    <g id="ITEM_3_ICON" transform="translate(802.0, 659.6)" data-icon-size="52" stroke-linecap="round" stroke-linejoin="round" data-badge-treatment="clean">
      <g transform="translate(-11.439999999999998,-11.732500000000002) scale(2.34)">
        <path d="M4.71839 18.0233C5.11525 17.458 5.8952 17.3215 6.46045 17.7184L18.5318 26.1936L17.0946 28.2406L5.02328 19.7653C4.45803 19.3685 4.32152 18.5885 4.71839 18.0233Z" fill="#5092FF"/>
        <path d="M18.5013 2.80347C18.8302 2.3598 19.4615 2.25982 19.9114 2.58017L21.5841 3.77124C22.034 4.09158 22.1321 4.71094 21.8032 5.15461L13.1102 16.8809C12.4436 17.7801 11.1641 17.9827 10.2523 17.3335C9.34053 16.6842 9.14176 15.429 9.80835 14.5298L18.5013 2.80347Z" fill="#636363"/>
        <path d="M18.0472 3.66594C16.8384 3.31432 15.3804 3.86071 14.5971 4.91739L11.7749 8.7243L11.9999 10.0001L10.6024 10.306L10.3989 10.5805C9.07399 12.3677 9.47824 14.8692 11.3018 16.1677C13.1254 17.4662 15.6778 17.07 17.0027 15.2828L17.1623 15.0675L16.9999 13.5001H18.3242L18.4883 13.2787C21.992 13.9302 23.8684 16.851 23.963 19.8545C24.0149 21.5041 23.5209 23.1307 22.4806 24.3899C21.4537 25.6329 19.8112 26.6185 17.3793 26.8486C16.5451 26.9276 15.9304 27.6956 16.0062 28.564C16.082 29.4325 16.8197 30.0725 17.6539 29.9935C20.7829 29.6974 23.1847 28.3804 24.7802 26.4491C26.3624 24.5339 27.069 22.1145 26.9946 19.751C26.8719 15.8564 24.6058 11.9837 20.5048 10.5586L21.2008 9.61967C21.9842 8.56299 22.0639 7.03517 21.3491 6.01708L18.0472 3.66594Z" fill="#BEBEBE"/>
        <path d="M2 29.2C2 27.4327 3.43269 26 5.2 26H26.8C28.5673 26 30 27.4327 30 29.2C30 29.6418 29.6418 30 29.2 30H2.8C2.35817 30 2 29.6418 2 29.2Z" fill="#9B9B9B"/>
        <path d="M11.7757 8.70947L18.3343 13.4746L17.1588 15.0927L10.6001 10.3275L11.7757 8.70947Z" fill="#D3D3D3"/>
      </g>
    </g>
    <text id="ITEM_3_HEAD" x="710.0" y="643.6" text-anchor="end" font-weight="bold" font-size="28" fill="var(--accent-3)" data-bg-id="ITEM_3_BG" fill-opacity="1.0" style="font-size: 31px; font-family: 'Segoe UI Variable Display', 'Aptos Display', 'Inter', 'Segoe UI', Helvetica, Arial, sans-serif; font-weight: 700; font-kerning: normal; font-feature-settings: &quot;kern&quot; 1, &quot;liga&quot; 1; letter-spacing:-0.4px;" data-final-font-size="31">
      <tspan x="710.0" dy="28.52px">Recursive Persistence</tspan>
    </text>
    <rect id="ITEM_3_HEAD_FRAME" x="260.0" y="643.6" width="450.0" height="40" fill="none"/>
    <text id="ITEM_3_BODY" x="710.0" y="687.6" text-anchor="end" font-size="20" fill="var(--primary-text)" data-bg-id="ITEM_3_BG" style="font-size: 23px; font-family: 'Segoe UI Variable Text', 'Aptos', 'Inter', 'Segoe UI', Helvetica, Arial, sans-serif; font-weight: 400; font-kerning: normal; font-feature-settings: &quot;kern&quot; 1, &quot;liga&quot; 1;" data-final-font-size="23">
      <tspan x="710.0" dy="19.82px">Maintaining corrigibility during self-</tspan>
      <tspan x="710.0" dy="26.45px">modification or agent creation</tspan>
    </text>
    <rect id="ITEM_3_BODY_FRAME" x="260.0" y="687.6" width="450.0" height="60" fill="none"/>
    <line x1="960" y1="876.8" x2="1006" y2="876.8" stroke="var(--accent-4)" stroke-width="4" stroke-linecap="round" opacity="0.55"/>
    <circle cx="960" cy="876.8" r="9" fill="var(--accent-4)" opacity="0.95" filter="url(#svg2ea3bd32-soft-glow)"/>
    <rect id="ITEM_4_BG" x="1006.0" y="795.2" width="690.0" height="163.2" rx="81.6" fill="var(--panel)" stroke="var(--accent-4)" stroke-width="3" filter="url(#svg2ea3bd32-shadow)"/>
    <rect x="1018.0" y="807.2" width="666.0" height="139.2" rx="69.6" fill="var(--accent-4)" fill-opacity="0.055"/>
    <rect x="1006.0" y="795.2" width="20" height="163.2" rx="10" fill="var(--accent-4)" fill-opacity="0.24"/>
    <circle id="ITEM_4_PAD" cx="1092.0" cy="876.8" r="42" fill="var(--icon-pad-bg)" stroke="var(--accent-1)" opacity="1" fill-opacity="0.9" stroke-width="2" stroke-opacity="0.72" data-badge-layer="pad"/>
    <circle id="ITEM_4_PAD_INNER" cx="1092.0" cy="876.8" r="32.76" fill="var(--accent-1)" fill-opacity="0.12" stroke="none" data-badge-layer="tint"/>
    <circle cx="1092.0" cy="876.8" r="33.6" fill="none" stroke="var(--accent-4)" stroke-width="3" stroke-dasharray="6 4" display="none" data-suppressed-decoration="redundant-badge-ring"/>
    <g id="ITEM_4_ICON" transform="translate(1066.0, 850.8)" data-icon-size="52" stroke-linecap="round" stroke-linejoin="round" data-badge-treatment="clean">
      <g transform="translate(-6.759999999999998,-6.759999999999998) scale(4.68)" vector-effect="non-scaling-stroke" stroke-width="2.34" stroke-linecap="round" stroke-linejoin="round" stroke-opacity="1.0">
        <path id="Vector" fill="none" d="M6 11.5a5.5 5.5 0 1 0 0 -11 5.5 5.5 0 0 0 0 11Z" vector-effect="non-scaling-stroke" stroke="#f1f5f9"/>
        <path id="Vector_2" stroke="#f1f5f9" d="M6 11.5a5.5 5.5 0 1 0 0 -11 5.5 5.5 0 0 0 0 11Z" vector-effect="non-scaling-stroke" fill="none"/>
        <path id="Vector_3" stroke="#f1f5f9" d="M13.5 13.5 10 10" vector-effect="non-scaling-stroke" fill="none"/>
      </g>
    </g>
    <text id="ITEM_4_HEAD" x="1162.0" y="834.8" text-anchor="start" font-weight="bold" font-size="28" fill="var(--accent-1)" data-bg-id="ITEM_4_BG" fill-opacity="1.0" style="font-size: 31px; font-family: 'Segoe UI Variable Display', 'Aptos Display', 'Inter', 'Segoe UI', Helvetica, Arial, sans-serif; font-weight: 700; font-kerning: normal; font-feature-settings: &quot;kern&quot; 1, &quot;liga&quot; 1; letter-spacing:-0.4px;" data-final-font-size="31">
      <tspan x="1162.0" dy="28.52px">Deception Stress-Testing</tspan>
    </text>
    <rect id="ITEM_4_HEAD_FRAME" x="1162.0" y="834.8" width="450.0" height="40" fill="none"/>
    <text id="ITEM_4_BODY" x="1162.0" y="878.8" text-anchor="start" font-size="20" fill="var(--primary-text)" data-bg-id="ITEM_4_BG" style="font-size: 23px; font-family: 'Segoe UI Variable Text', 'Aptos', 'Inter', 'Segoe UI', Helvetica, Arial, sans-serif; font-weight: 400; font-kerning: normal; font-feature-settings: &quot;kern&quot; 1, &quot;liga&quot; 1;" data-final-font-size="23">
      <tspan x="1162.0" dy="19.82px">Evaluating systems for hidden goals</tspan>
      <tspan x="1162.0" dy="26.45px">and oversight avoidance</tspan>
    </text>
    <rect id="ITEM_4_BODY_FRAME" x="1162.0" y="878.8" width="450.0" height="60" fill="none"/>
  </g>
  <text id="SOURCE_NOTE" x="134.0" y="1058.0" fill="var(--muted-text)" opacity="0.88" style="font-family: var(--font-family); font-size: 20px;">Source: Introduction</text>
</svg>
